<?xml version="1.0" standalone="no"?>
<!DOCTYPE svg PUBLIC "-//W3C//DTD SVG 20010904//EN"
 "http://www.w3.org/TR/2001/REC-SVG-20010904/DTD/svg10.dtd">
<svg version="1.0" xmlns="http://www.w3.org/2000/svg"
 width="350.000000pt" height="303.000000pt" viewBox="0 0 350.000000 303.000000"
 preserveAspectRatio="xMidYMid meet">
<metadata>
Created by potrace 1.15, written by Peter Selinger 2001-2017
</metadata>
<g transform="translate(0.000000,303.000000) scale(0.100000,-0.100000)"
fill="#000000" stroke="none">
<path d="M1510 3016 c-327 -59 -590 -195 -820 -426 -216 -216 -352 -467 -417
-770 -26 -121 -26 -459 0 -580 65 -303 201 -554 417 -770 216 -216 467 -352
770 -417 121 -26 459 -26 580 0 303 65 554 201 770 417 216 216 352 467 417
770 26 121 26 459 0 580 -65 303 -201 554 -417 770 -213 213 -461 349 -760
415 -102 23 -436 29 -540 11z m560 -89 c273 -65 489 -186 690 -387 201 -201
323 -418 387 -690 30 -130 42 -370 24 -503 -87 -648 -590 -1151 -1238 -1238
-133 -18 -373 -6 -503 24 -272 64 -489 186 -690 387 -206 205 -328 429 -392
711 -20 90 -23 130 -23 304 1 181 3 211 27 312 138 583 600 1009 1195 1103 32
5 139 7 238 5 148 -3 199 -8 285 -28z"/>
<path d="M2132 2338 c-8 -8 -12 -65 -12 -190 l0 -177 -152 -3 -152 -3 -10 -35
c-5 -19 -10 -36 -11 -38 -2 -2 -93 49 -133 74 -2 1 5 17 14 37 20 42 13 67
-20 67 -20 0 -33 -16 -75 -91 -55 -97 -61 -132 -23 -137 16 -3 27 5 40 27 9
17 21 31 26 31 4 0 41 -19 81 -41 l72 -41 -17 -68 c-19 -73 -13 -100 21 -100
16 0 19 -4 13 -22 -15 -49 -99 -138 -129 -138 -8 0 -43 29 -78 64 -46 46 -89
76 -151 106 -47 24 -86 48 -86 54 0 6 -11 82 -24 170 -31 202 -36 209 -159
214 -63 3 -86 0 -95 -10 -8 -10 -12 -75 -14 -197 l-3 -183 -52 -18 c-118 -41
-227 -121 -221 -162 5 -38 47 -35 90 6 99 96 284 139 431 101 266 -69 426
-330 365 -595 -10 -44 -9 -53 4 -67 22 -21 47 -10 59 27 l11 30 221 0 222 0 1
-53 c5 -144 132 -261 284 -260 113 0 199 53 249 155 57 112 35 244 -52 329
l-36 35 -3 315 -3 316 -29 37 c-39 52 -78 66 -186 66 l-90 0 0 174 c0 210 2
206 -104 206 -43 0 -77 -5 -84 -12z m110 -425 c-3 -373 -5 -399 -39 -371 -10
8 -13 90 -13 374 l0 364 28 0 27 0 -3 -367z m-1014 105 c5 -7 17 -67 26 -133
9 -66 19 -131 22 -145 l5 -25 -76 3 -75 4 0 154 0 154 44 0 c24 0 48 -6 54
-12z m892 -208 l0 -90 -145 0 c-158 0 -152 -2 -136 60 6 19 15 54 21 78 l11
42 124 0 125 0 0 -90z m406 66 c24 -20 28 -32 32 -90 l4 -66 -121 0 -121 0 0
90 0 90 89 0 c80 0 93 -3 117 -24z m-406 -282 c0 -69 10 -89 60 -114 37 -19
43 -19 75 -6 42 18 65 63 65 131 0 41 2 45 25 45 l25 0 0 -195 c0 -158 -3
-195 -14 -195 -7 0 -25 -9 -39 -20 -24 -19 -40 -20 -295 -20 l-270 0 -11 52
c-6 28 -20 71 -31 96 -23 52 -24 62 -7 62 22 1 91 60 120 102 15 23 32 59 39
80 l11 38 124 0 123 0 0 -56z m440 -4 l0 -60 -35 0 c-33 0 -35 -2 -35 -35 0
-33 2 -35 35 -35 31 0 35 -3 35 -25 0 -22 -4 -25 -35 -25 -33 0 -35 -2 -35
-35 0 -33 2 -35 35 -35 34 0 35 -2 35 -36 0 -29 -3 -35 -16 -30 -9 3 -36 6
-60 6 l-44 0 0 185 0 185 60 0 60 0 0 -60z m-16 -390 c43 -16 104 -79 122
-125 85 -225 -211 -394 -364 -209 -88 107 -48 273 78 328 40 17 126 21 164 6z
m-324 -56 c0 -3 -5 -14 -10 -25 -10 -18 -23 -19 -235 -19 l-225 0 0 25 0 25
235 0 c129 0 235 -3 235 -6z"/>
<path d="M1809 1313 l-4 -38 132 3 133 3 0 35 0 34 -129 0 -129 0 -3 -37z"/>
<path d="M2434 1090 c-28 -11 -64 -58 -64 -83 0 -11 5 -35 11 -52 12 -33 52
-55 96 -55 30 0 80 45 86 77 7 40 -16 89 -52 107 -33 18 -46 19 -77 6z"/>
<path d="M1158 1594 c-9 -3 -18 -15 -20 -27 -2 -16 -11 -23 -32 -25 -16 -2
-33 1 -39 7 -16 16 -53 13 -90 -5 -51 -26 -67 -45 -67 -79 0 -38 -24 -62 -65
-67 -55 -6 -103 -133 -62 -163 25 -18 21 -52 -8 -71 -20 -13 -25 -24 -24 -58
1 -69 20 -110 56 -120 36 -11 56 -44 41 -69 -30 -54 96 -159 138 -117 16 16
64 -9 64 -31 0 -25 35 -45 92 -53 52 -8 83 3 93 33 7 23 62 34 69 14 8 -19 51
-16 94 6 52 26 76 55 69 83 -8 29 18 58 53 58 32 0 52 20 74 74 21 50 20 69
-3 90 -23 21 -17 49 16 82 20 20 23 30 17 61 -14 77 -20 88 -58 108 -41 22
-63 50 -46 60 23 14 9 54 -35 94 -43 39 -86 53 -100 32 -12 -20 -62 9 -68 38
-3 16 -12 31 -20 34 -22 8 -120 16 -139 11z m100 -99 c11 -24 85 -65 118 -65
11 0 25 5 30 10 17 17 38 -16 39 -60 1 -47 46 -117 80 -126 30 -7 33 -36 6
-63 -27 -27 -36 -104 -17 -143 22 -42 12 -68 -24 -68 -37 0 -100 -68 -100
-108 0 -21 -7 -32 -25 -40 -14 -6 -25 -8 -25 -3 0 31 -125 15 -156 -20 -23
-26 -57 -24 -69 4 -15 33 -92 69 -134 63 -44 -7 -62 8 -55 43 8 39 -29 108
-72 133 -32 19 -48 58 -23 58 15 0 39 63 39 102 0 19 -7 43 -15 56 -20 28 -4
62 28 62 34 0 100 72 100 109 0 38 33 56 62 34 34 -24 155 8 155 41 0 22 46 7
58 -19z"/>
<path d="M1120 1401 c-69 -22 -132 -75 -163 -136 -59 -117 -4 -274 117 -338
65 -34 165 -31 234 8 81 44 132 130 132 220 0 94 -59 189 -144 229 -43 20
-138 30 -176 17z m170 -95 c44 -29 80 -96 80 -149 0 -144 -164 -233 -281 -154
-123 83 -109 256 26 319 52 24 124 18 175 -16z"/>
</g>
</svg>
