<?xml version="1.0" standalone="no"?>
<!DOCTYPE svg PUBLIC "-//W3C//DTD SVG 20010904//EN"
 "http://www.w3.org/TR/2001/REC-SVG-20010904/DTD/svg10.dtd">
<svg version="1.0" xmlns="http://www.w3.org/2000/svg"
 width="350.000000pt" height="342.000000pt" viewBox="0 0 350.000000 342.000000"
 preserveAspectRatio="xMidYMid meet">
<metadata>
Created by potrace 1.15, written by Peter Selinger 2001-2017
</metadata>
<g transform="translate(0.000000,342.000000) scale(0.100000,-0.100000)"
fill="#000000" stroke="none">
<path d="M1610 3375 c-8 -2 -55 -9 -105 -15 -234 -31 -476 -128 -697 -279
-341 -233 -585 -592 -679 -996 -31 -135 -39 -212 -39 -379 0 -214 18 -328 86
-539 166 -520 633 -948 1184 -1086 226 -56 574 -56 800 0 249 63 526 208 708
373 303 275 473 587 551 1012 16 89 14 403 -4 499 -39 208 -71 307 -153 475
-127 261 -313 478 -552 642 -206 142 -405 224 -660 273 -69 14 -405 29 -440
20z m371 -100 c178 -26 316 -68 484 -150 116 -56 255 -148 255 -167 0 -6 3 -8
6 -5 18 18 240 -204 314 -313 13 -19 27 -37 30 -40 11 -8 89 -146 125 -219 57
-117 109 -288 135 -446 26 -155 12 -421 -29 -600 -52 -222 -192 -500 -318
-633 -22 -23 -38 -43 -36 -45 7 -7 -163 -163 -237 -218 -88 -66 -197 -130
-289 -171 -36 -16 -75 -33 -86 -38 -11 -5 -55 -21 -97 -34 -310 -102 -757 -88
-1053 33 -68 28 -230 111 -287 147 -72 46 -71 46 -169 127 -221 185 -414 482
-490 755 -5 17 -14 49 -19 70 -59 214 -56 543 5 777 47 177 146 393 237 515
61 81 82 107 122 151 25 27 50 49 57 49 7 0 10 3 6 6 -10 10 134 133 233 199
150 99 345 185 515 225 169 40 411 50 586 25z"/>
<path d="M1325 2712 c-236 -153 -468 -301 -515 -330 -47 -28 -98 -60 -115 -72
l-30 -20 1095 0 1095 0 -157 103 c-87 56 -187 120 -223 142 -36 22 -210 133
-388 247 -177 114 -324 208 -327 208 -3 0 -198 -125 -435 -278z"/>
<path d="M1405 1705 l0 -510 123 3 122 3 0 504 0 504 -122 3 -123 3 0 -510z"/>
<path d="M1993 2213 l-123 -4 0 -504 0 -504 123 -3 122 -3 0 513 c0 281 0 511
0 510 0 -1 -55 -4 -122 -5z"/>
<path d="M940 1705 l0 -505 120 0 120 0 0 505 0 505 -120 0 -120 0 0 -505z"/>
<path d="M2340 1705 l0 -505 120 0 120 0 0 505 0 505 -120 0 -120 0 0 -505z"/>
<path d="M748 893 l3 -163 1009 0 1009 0 3 163 3 162 -1015 0 -1015 0 3 -162z"/>
</g>
</svg>
