<?xml version="1.0" standalone="no"?>
<!DOCTYPE svg PUBLIC "-//W3C//DTD SVG 20010904//EN"
 "http://www.w3.org/TR/2001/REC-SVG-20010904/DTD/svg10.dtd">
<svg version="1.0" xmlns="http://www.w3.org/2000/svg"
 width="350.000000pt" height="349.000000pt" viewBox="0 0 350.000000 349.000000"
 preserveAspectRatio="xMidYMid meet">
<metadata>
Created by potrace 1.15, written by Peter Selinger 2001-2017
</metadata>
<g transform="translate(0.000000,349.000000) scale(0.100000,-0.100000)"
fill="#000000" stroke="none">
<path d="M1575 3429 c-246 -35 -422 -88 -600 -181 -62 -33 -195 -118 -241
-155 -22 -18 -43 -31 -45 -30 -2 2 -59 -52 -127 -120 -67 -67 -120 -123 -116
-123 3 0 -15 -26 -40 -57 -39 -51 -166 -255 -166 -268 0 -2 -12 -30 -26 -62
-38 -85 -40 -91 -67 -178 -50 -164 -77 -338 -77 -493 0 -87 23 -301 39 -362
20 -74 64 -216 76 -245 7 -16 23 -55 36 -85 12 -30 31 -67 41 -82 10 -14 18
-29 18 -32 0 -7 100 -169 109 -176 3 -3 19 -23 36 -45 25 -34 76 -93 122 -141
7 -7 13 -18 13 -25 0 -7 3 -10 6 -6 4 3 39 -23 78 -59 118 -109 336 -243 496
-305 76 -29 193 -64 310 -91 75 -18 526 -18 593 0 26 6 68 17 95 23 198 47
352 114 537 235 61 40 142 102 181 138 39 36 74 62 78 59 3 -4 6 -1 6 6 0 10
16 30 95 115 6 6 24 29 40 51 17 22 33 42 36 45 16 13 111 176 152 260 40 83
95 238 127 360 16 59 40 274 40 360 0 88 -23 298 -41 370 -17 68 -59 201 -74
235 -7 17 -23 55 -36 85 -30 72 -130 240 -185 311 -24 31 -42 58 -40 60 1 2
-53 59 -121 127 -67 67 -123 119 -123 116 0 -4 -19 9 -42 28 -123 98 -319 201
-498 261 -216 73 -501 104 -695 76z m415 -174 c83 -14 105 -19 205 -48 290
-82 599 -305 782 -563 99 -140 148 -236 224 -444 9 -26 20 -73 44 -200 20
-101 20 -370 0 -475 -25 -136 -35 -179 -44 -205 -60 -165 -88 -227 -150 -335
-53 -91 -189 -264 -208 -264 -7 -1 -13 -8 -13 -17 0 -8 -4 -12 -10 -9 -5 3
-10 2 -10 -4 0 -17 -77 -85 -202 -178 -69 -51 -265 -148 -368 -183 -489 -164
-1014 -75 -1427 243 -58 44 -123 107 -123 118 0 6 -5 7 -10 4 -6 -3 -10 1 -10
9 0 9 -6 16 -12 17 -7 0 -36 28 -64 62 -141 173 -203 286 -295 537 -9 26 -20
73 -44 200 -29 150 -18 418 24 605 12 54 15 61 57 175 37 99 144 303 174 330
3 3 25 32 50 65 100 136 306 310 470 397 150 79 307 133 475 163 100 18 381
18 485 0z"/>
<path d="M1353 3023 c-13 -2 -32 -16 -43 -30 -19 -25 -20 -40 -20 -404 l0
-379 -379 0 -379 0 -31 -26 -31 -26 0 -423 0 -422 26 -27 27 -26 383 0 384 0
0 -371 c0 -235 4 -377 10 -390 26 -47 43 -49 464 -49 285 0 402 3 421 12 54
24 55 36 55 433 l0 365 373 0 c404 0 396 -1 426 57 15 30 15 787 0 832 -21 60
-30 61 -434 61 l-365 0 0 373 c0 347 -1 374 -19 403 -14 23 -29 33 -57 37 -43
7 -775 7 -811 0z"/>
</g>
</svg>
