<?xml version="1.0" standalone="no"?>
<!DOCTYPE svg PUBLIC "-//W3C//DTD SVG 20010904//EN"
 "http://www.w3.org/TR/2001/REC-SVG-20010904/DTD/svg10.dtd">
<svg version="1.0" xmlns="http://www.w3.org/2000/svg"
 width="225.000000pt" height="225.000000pt" viewBox="0 0 225.000000 225.000000"
 preserveAspectRatio="xMidYMid meet">
<metadata>
Created by potrace 1.15, written by Peter Selinger 2001-2017
</metadata>
<g transform="translate(0.000000,225.000000) scale(0.100000,-0.100000)"
fill="#000000" stroke="none">
<path d="M1931 1864 c-32 -36 -34 -37 -116 -41 -78 -3 -85 -2 -101 19 -16 22
-15 16 2 -27 5 -11 2 -14 -12 -9 -11 4 -26 12 -34 18 -12 8 -13 8 -2 -4 6 -8
12 -17 12 -22 0 -14 -55 12 -72 35 -18 22 -18 21 -7 -12 9 -24 22 -38 50 -50
40 -18 42 -31 5 -31 -19 0 -19 -1 -1 -14 17 -12 14 -16 -36 -53 -30 -22 -67
-45 -84 -51 -29 -10 -29 -11 -7 -17 40 -13 20 -54 -27 -56 l-26 -1 28 -10 c33
-12 34 -22 3 -53 -20 -20 -22 -25 -8 -30 13 -5 14 -8 3 -14 -7 -5 -11 -13 -7
-19 6 -10 -35 -32 -94 -50 -65 -20 -144 -32 -310 -47 -241 -23 -267 -32 -368
-129 l-63 -60 -98 -6 c-163 -10 -218 -52 -316 -241 -48 -93 -59 -106 -102
-119 -27 -8 -27 -8 10 -9 21 -1 47 4 58 9 14 8 19 7 19 -3 0 -14 -41 -56 -75
-76 -17 -11 -15 -12 17 -7 24 3 38 1 38 -6 0 -19 -68 -75 -122 -102 l-53 -26
40 6 c32 5 91 28 158 62 14 7 7 -21 -10 -40 -10 -11 -12 -18 -4 -18 16 0 71
28 95 49 18 15 19 15 14 -6 -9 -35 15 -29 62 15 39 38 51 34 29 -11 -6 -13 6
-5 29 19 38 39 62 93 62 139 0 11 -14 58 -30 105 -38 110 -39 143 -1 181 22
21 39 29 65 29 46 0 78 -32 69 -69 -13 -47 -7 -105 15 -148 36 -70 31 -86 -54
-174 l-77 -78 22 -69 c24 -75 31 -151 18 -220 -6 -32 -4 -42 4 -36 9 5 10 0 5
-17 -21 -67 -9 -76 109 -78 96 -1 100 9 30 77 -63 60 -85 105 -100 211 l-6 45
78 70 c43 39 130 121 193 182 l115 111 68 -13 c115 -22 374 -44 519 -44 131 0
144 -2 246 -35 59 -19 113 -39 120 -44 20 -12 4 -80 -25 -109 -20 -20 -31 -24
-65 -19 -30 4 -38 2 -34 -8 3 -9 -3 -15 -17 -17 -26 -4 -67 -71 -67 -110 0
-16 1 -28 3 -28 2 0 48 16 103 35 l99 34 26 73 c14 40 38 91 53 113 38 55 32
83 -24 112 -76 40 -120 73 -120 89 0 8 15 49 34 89 l34 74 -15 58 c-12 48 -13
72 -4 138 6 44 11 115 11 157 0 42 4 80 10 83 9 5 83 -31 179 -89 19 -11 53
-21 76 -22 35 -2 42 1 53 24 21 44 14 62 -54 146 -36 44 -70 91 -76 105 -5 13
-24 45 -42 70 -50 69 -53 76 -30 67 12 -5 15 -4 9 2 -5 6 -19 12 -30 14 -12 2
-24 16 -31 36 l-11 34 -32 -38z"/>
<path d="M923 828 c-40 -42 -41 -44 -25 -67 24 -35 21 -117 -6 -170 -16 -30
-21 -52 -17 -72 4 -16 10 -27 15 -24 8 5 57 -29 77 -55 7 -8 13 -24 13 -35 1
-28 37 -105 49 -105 6 0 8 7 5 15 -4 9 0 15 9 15 15 0 34 -38 39 -80 3 -21 9
-25 43 -28 49 -4 135 6 154 18 20 12 1 34 -61 69 -26 15 -45 30 -42 34 4 3 -5
9 -20 13 -14 3 -42 25 -63 48 -20 22 -49 49 -64 58 -52 32 -49 70 19 233 l59
144 -56 11 c-31 6 -63 13 -71 16 -9 2 -33 -14 -57 -38z"/>
<path d="M2017 730 c-13 -29 -15 -44 -7 -64 5 -15 10 -43 10 -62 0 -30 -3 -34
-25 -34 -22 0 -24 -2 -15 -26 6 -14 10 -52 10 -85 0 -66 22 -133 42 -127 7 2
23 24 35 48 12 25 27 51 34 58 6 8 9 26 5 43 -3 16 -1 29 4 29 18 0 11 29 -21
85 -19 34 -32 74 -36 110 -3 30 -9 57 -12 59 -3 2 -14 -13 -24 -34z"/>
</g>
</svg>
