<?xml version="1.0" standalone="no"?>
<!DOCTYPE svg PUBLIC "-//W3C//DTD SVG 20010904//EN"
 "http://www.w3.org/TR/2001/REC-SVG-20010904/DTD/svg10.dtd">
<svg version="1.0" xmlns="http://www.w3.org/2000/svg"
 width="700.000000pt" height="603.000000pt" viewBox="0 0 700.000000 603.000000"
 preserveAspectRatio="xMidYMid meet">
<metadata>
Created by potrace 1.15, written by Peter Selinger 2001-2017
</metadata>
<g transform="translate(0.000000,603.000000) scale(0.100000,-0.100000)"
fill="#000000" stroke="none">
<path d="M3150 6015 c-680 -83 -1296 -381 -1775 -860 -481 -482 -780 -1101
-860 -1781 -20 -169 -20 -519 0 -688 121 -1035 756 -1922 1695 -2370 413 -196
817 -286 1290 -286 491 0 895 93 1325 305 272 134 489 282 702 477 281 257
494 542 668 893 137 277 226 559 277 875 20 129 23 179 23 450 0 336 -12 452
-75 708 -282 1154 -1203 2027 -2370 2247 -242 45 -659 59 -900 30z m585 -125
c579 -53 1075 -248 1545 -611 122 -94 375 -347 469 -469 341 -443 535 -910
603 -1450 16 -135 17 -524 0 -660 -140 -1137 -932 -2087 -2015 -2414 -820
-248 -1708 -120 -2412 347 -345 229 -653 547 -872 899 -202 325 -343 724 -400
1128 -24 174 -24 566 0 740 118 842 565 1555 1273 2028 518 346 1193 518 1809
462z"/>
<path d="M2723 5055 c-77 -78 -81 -79 -323 -85 -174 -4 -221 -8 -245 -21 -61
-34 -95 -95 -95 -169 0 -67 29 -123 82 -157 l41 -28 425 -5 c405 -5 424 -6
438 -24 19 -26 18 -39 -5 -67 -19 -24 -22 -24 -258 -29 -236 -5 -239 -5 -295
-33 -107 -52 -178 -160 -178 -267 0 -55 21 -80 67 -80 38 0 59 24 67 79 9 58
29 95 68 124 30 22 98 51 98 42 0 -1 -11 -27 -25 -57 -31 -66 -34 -147 -7
-171 24 -22 75 -22 94 1 9 9 18 37 22 62 9 60 36 103 86 136 38 25 53 28 164
34 112 5 127 8 164 33 53 34 82 91 82 157 0 78 -35 137 -102 171 -34 17 -62
19 -318 19 l-281 0 -24 25 c-29 28 -31 43 -11 70 11 16 32 21 107 26 108 8
168 30 227 84 73 65 87 136 33 164 -34 19 -52 12 -98 -34z"/>
<path d="M4782 4584 c-12 -8 -22 -25 -22 -37 0 -72 -45 -144 -111 -177 -34
-18 -59 -20 -226 -20 -103 0 -205 -5 -226 -11 -47 -13 -106 -63 -123 -106 -18
-41 -18 -115 0 -156 17 -43 76 -93 123 -106 24 -7 189 -11 435 -11 l398 0 17
-26 c15 -24 15 -29 2 -53 l-15 -26 -234 -5 c-277 -7 -316 -17 -400 -100 -107
-108 -123 -290 -25 -290 32 0 65 33 65 65 0 36 26 95 56 126 26 27 100 66 109
58 2 -3 -5 -25 -17 -49 -12 -24 -24 -69 -26 -101 -4 -48 -1 -60 17 -78 41 -41
111 -13 111 47 1 62 62 148 123 171 16 6 67 11 115 11 108 0 152 12 199 53 44
39 63 82 63 142 0 25 -6 60 -14 78 -17 43 -76 93 -123 106 -22 7 -151 11 -310
11 l-273 0 -17 26 c-15 24 -15 29 -2 53 13 24 22 27 97 33 46 4 104 14 130 23
121 41 212 164 212 287 0 66 -56 99 -108 62z"/>
<path d="M2120 3750 l0 -160 750 0 750 0 0 -60 0 -60 -749 0 -749 0 -6 -237
c-30 -1229 -48 -1410 -186 -1869 -33 -109 -60 -202 -60 -206 0 -5 452 -8 1005
-8 553 0 1005 4 1005 8 0 4 -25 89 -55 187 -91 294 -112 392 -139 645 -32 296
-55 957 -56 1583 l0 337 -755 0 -755 0 0 -160z"/>
<path d="M3870 3125 l0 -155 570 0 570 0 0 78 c0 44 -3 113 -6 155 l-7 77
-563 0 -564 0 0 -155z"/>
<path d="M3870 2798 c-1 -163 -21 -710 -31 -855 -11 -155 -11 -166 11 -260 12
-54 47 -179 76 -278 30 -99 57 -197 61 -218 l6 -37 628 0 c389 0 629 4 629 9
0 6 -16 37 -36 71 -95 163 -145 355 -174 670 -10 115 -29 591 -33 815 l-2 140
-567 3 -568 2 0 -62z"/>
</g>
</svg>
