<?xml version="1.0" encoding="utf-8"?>
<!-- Generator: Adobe Illustrator 22.1.0, SVG Export Plug-In . SVG Version: 6.00 Build 0)  -->
<svg version="1.1" id="Layer_1" xmlns="http://www.w3.org/2000/svg" xmlns:xlink="http://www.w3.org/1999/xlink" x="0px" y="0px"
	 viewBox="0 0 612 92.6" style="enable-background:new 0 0 612 92.6;" xml:space="preserve">
<style type="text/css">
	.st0{fill:#E73512;}
	.st1{fill:#F86E58;}
	.st2{fill:#27160E;}
	.st3{fill:#28160E;}
	.st4{fill:#2B150D;}
	.st5{fill:#2A150D;}
	.st6{fill:#7F1107;}
	.st7{fill:#902211;}
	.st8{fill:#42110A;}
	.st9{fill:#A92B1A;}
	.st10{fill:#E53412;}
	.st11{fill:#F1D0A2;}
	.st12{fill:#E4BE35;}
	.st13{fill:#E66A18;}
	.st14{fill:#6F8FC8;}
	.st15{fill:#F6CA0B;}
</style>
<g>
	<g>
		<path class="st0" d="M-1.2,78.3c0-0.5,0-0.9,0-1.4c0.8-0.5,0.7-1.3,0.7-2c-0.1-2.9-0.4-5.8,0-8.8c0.5-4,0.4-8,0.1-12.1
			c-0.4-4.8-0.1-9.6-0.1-14.5c0-0.5,0.1-0.9,0.2-1.4c0.6-1.8,0.4-3.5,0.3-5.3c-0.2-2.4-0.5-4.8-0.2-7.3c0.3-3,0-6,0-9
			c0-0.8-0.3-1.5-1-1.9c0-1,0-2.1,0-3.1c0.8-3.7,1.5-7.4,1-11.2c203.7,0,407.3,0,611,0c1.3,0,1.6,0.3,1.6,1.6c0,29.9,0,59.8,0,89.7
			c0,1.2-0.2,1.4-1.4,1.4c-203.6,0-407.2,0-610.8,0c-1.2,0-1.7-0.2-1.4-1.4c0.8-0.2,0.9-1,0.9-1.5C-0.4,86.1,0.6,82.1-1.2,78.3z
			 M475.8,80.8l-0.1,0.1l-0.1,0.1c0,0,0,0.1,0,0.1c-0.1,0.2-0.2,0.3-0.2,0.5l-0.1,0.1c0,0,0.1,0.1,0.1,0.1c0,0.2-0.1,0.4-0.1,0.6
			c-0.5,0.5-1,1-0.4,1.7c0.4,0.5,1.1,0.6,1.5,0.1c1.1-1.1,2.3-0.8,3.5-0.5c0.4,0.7,1,0.9,1.6,0.5c0.7-0.4,0.3-1,0.2-1.5
			c-0.3-1.5-0.8-2.9-1.6-4.2c-0.8-1.2-2.7-1.3-3.5,0c-0.3,0.5-0.4,1.2-0.6,1.8C475.9,80.5,475.9,80.7,475.8,80.8z M562.2,82.8
			c0-0.1,0-0.1,0.1-0.2l0.1,0c0,0-0.1-0.1-0.1-0.1c0.1-0.2,0.1-0.4,0.2-0.6c0.9-0.5,1.2-1.6,1.6-2.4c0.2-0.3,0.2-0.6-0.1-0.9
			c-0.4-0.4-0.7-0.3-1.1,0c-0.9,0.7-1.7,0.8-2.7,0.1c-0.6-0.4-1.4-0.6-1.9,0c-0.5,0.7,0,1.4,0.7,1.9c0.2,0.3,0.3,0.6,0.5,0.9
			c0.1,0.2,0.2,0.3,0.2,0.5c0,0.1,0,0.2,0.1,0.2c0.1,0.6,0,1.2,0.3,1.8c0,0.1,0,0.2,0.1,0.3c-0.1,0.6,0.2,1,0.8,1
			c0.6,0,0.9-0.4,0.8-1.1c0.1-0.3,0.1-0.6,0.2-0.9C562.1,83.1,562.2,83,562.2,82.8z M254,11.2c0.1-0.2,0.2-0.4,0.4-0.7
			c0.1-0.2,0.3-0.4,0.4-0.6c0.2-0.4,0.7-0.8,0.3-1.2c-0.5-0.5-0.9,0.1-1.2,0.4c-1.4,1-2.7,2.1-3.7,3.5c-1.2,0.7-2.2,1.5-2.9,2.7
			c-0.2,0.3-0.4,0.5-0.6,0.8c-0.6,0.9-0.2,1.8-0.3,2.8c-1.3,1.8-2.1,3.8-2.2,6c-0.1,2-0.8,3.1-2.6,3.1c-3.3,0-6.6,0.4-9.9,0.7
			c-6.3,0.5-12.6,1.5-18.8,2.9c-0.6,0.1-1.3,0.2-1.6,0.9c-4.3,0.8-8.4,2.5-12.1,4.7c-3,1.8-5.6,3.9-7,7.3
			c-1.9,4.8,0.2,10.3,4.9,13.7c6.1,4.3,13,6.5,20.3,8c9.4,2,18.8,3,28.4,3.3c5.9,0.2,11.7,0.1,17.6-0.3c10.6-0.6,21-2,31.1-5.7
			c3.9-1.5,7.7-3.4,10.6-6.5c3.5-3.7,4.3-8.3,1.9-12.7c-1.5-2.7-3.9-4.5-6.4-6.2c-0.2-0.7-0.8-1-1.4-1.2c-1.4-0.6-2.7-1.3-4.1-1.8
			c-3.9-1.6-7.9-2.9-12.1-3.8c-6.8-1.4-13.7-2.4-20.7-2.8c-0.8,0-1.6-0.2-1.8-1.1c-0.1-0.9,0.7-1.1,1.3-1.4c1.4-0.8,3.1-1.1,4.1-2.5
			c1.3-0.6,2.1-1.9,3.6-2.3c0.2,0,0.4-0.3,0.4-0.5c0-0.4-0.3-0.4-0.6-0.5c-1.2-0.3-2.3,0.1-3.3,0.6c-0.6,0.3-1.2,0.6-1.7-0.1
			c-0.5-0.6-0.8-1.5-0.2-2.1c0.8-0.8,1.2-2,2.3-2.6c1.2-0.1,2.5-0.1,3.5-1c-1.4-0.2-2.8-0.4-4.2,0c-0.7,0-1.2,0.4-1.7,0.8
			c-1.2,0.8-1.9-0.2-2.7-0.8c-1.5-1.1-1.6-1.9-0.4-3.1c0.4-0.3,1.1-0.6,0.7-1.2c-0.3-0.5-0.9-0.1-1.4,0.1c-1.4,0.8-2.7,1.6-4.1,2.2
			c-1.1,0.5-2.3,0.7-2.2-1.2c0,0,0,0,0,0C253.7,11.6,253.8,11.4,254,11.2C254,11.2,254,11.2,254,11.2z M533.3,78.7
			c-0.1-0.3-0.3-0.4-0.6-0.5c-0.4,0-0.7,0-1.1-0.1c-0.5-0.1-0.9,0-1.1,0.5c-0.1,0.2-0.2,0.5-0.3,0.7c-0.3,0.7-0.7,1.4-1,2.2
			c-0.3,0.6-0.6,1.1-0.8,1.7c-0.2,0.5-0.5,1.2,0.1,1.6c0.5,0.3,1.1,0.4,1.7-0.2c0.9-1.1,2.1-0.7,3.2-0.3l0,0c0.1,0.7,0.5,1,1.2,0.9
			c0.6-0.1,0.9-0.6,0.9-1.2c0-0.9-0.1-1.7-0.8-2.3c0-0.1-0.1-0.3-0.1-0.4c-0.1-0.1-0.1-0.3-0.2-0.4c0-0.1-0.1-0.2-0.1-0.3
			c-0.1-0.1-0.1-0.3-0.2-0.4c-0.1-0.2-0.3-0.4-0.4-0.7C533.7,79.1,533.6,78.8,533.3,78.7C533.3,78.7,533.3,78.7,533.3,78.7z
			 M491.7,78L491.7,78c-0.4-0.6-0.9-1-1.4-0.1l0,0c-0.5,0-0.9,0.3-1,0.8c-0.4,1.9-0.8,3.8,0.4,5.6c0.2,0.2,0.5,0.2,0.7,0.2
			c0.6-0.1,0.5-0.5,0.5-1c0-0.1,0-0.2,0.1-0.3c0.7-1.4,1.6-1,2.4-0.2c0.5,0.5,0.9,1.1,1.4,1.5c0.7,0.5,1.5,0.7,1.7-0.6
			c0.3-1.8,0.5-3.6,0.2-5.4c-0.6-0.9-1.4-1-1.6-0.1c-0.7,2.3-1.6,0.9-2.5,0.3C492.5,78.3,492.1,78,491.7,78z M465.1,80
			c-0.1-0.2-0.2-0.4-0.3-0.6c-0.1-0.2-0.2-0.5-0.3-0.6c-0.5-0.5-0.6-1.6-1.6-1.1c-1.1,0.5-0.7,1.4-0.3,2.3c0.5,1.2,1,2.4,1.5,3.5
			c0.7,1.4,2.2,1.5,3,0.2c0.3-0.4,0.4-1,0.6-1.4c0.3-0.4,0.6-0.9,0.6-1.5c0,0,0,0,0,0c0.2-0.2,0.4-0.5,0.5-0.7
			c0.3-0.8,1.2-1.9,0-2.4c-1.2-0.5-1.5,0.8-1.8,1.7c0,0,0,0,0,0c-0.1,0.1-0.1,0.2-0.2,0.3c-0.1,0.1-0.1,0.3-0.2,0.4
			C466.1,80.1,465.6,80.1,465.1,80L465.1,80z M89,31.1L89,31.1c-1,0.3-2.2,0.2-2.8,1.4l-0.1,0c-1.2,0.4-2.4,0.8-3.3,1.8l-0.1,0.1
			c-1.5,0.4-3,0.9-4,2.2c-6.1,3.2-12.1,6.3-18.2,9.6c-12.3,6.6-24.6,13.2-36.9,19.9c-1.8,1-3.8,1.6-5.1,3.5c0.9,0.5,1.6,0.6,2.4,0.6
			c14.6,0.1,29.1,0.2,43.6,0.6c11.6,0.3,23.2,0.3,34.7,0.3c9.8,0,19.6,0.1,29.3,0.4c1.2,0,2.4,0,3.4,0.9c0.6,0.5,1.2,1,2,0.6
			c0.8-0.4,0.8-1.2,0.8-2c0-2.6,0.1-5.1,0.1-7.7c0-2-0.8-2.4-2.7-1.5c-0.6,0.1-1.2,0.3-1.9,0.4c-6.7,0.7-13.5,0.3-20.2,0.2
			c-1.2,0-2.4-0.6-3.5,0.3c-0.2,0-0.4,0-0.6,0c-0.2-0.2-0.5-0.2-0.7,0c-0.2,0-0.4,0-0.6,0c-1-1-2.3-0.5-3.5-0.5
			c-2.9,0.1-5.9-0.4-8.8,0.2c-3.3,0-6.5,0-9.8-0.1c-0.1,0-0.3,0-0.4,0c-1.6,0-3.2,0-4.9,0c-0.6-0.6-1.4-0.5-2.1-0.5
			c-3.4,0-6.7,0-10.1,0c-1,0-1.9-0.1-1.8-1.5c0.3-0.2,0.6-0.5,1-0.7c10-5.4,20-10.8,30-16.2c6.1-3.3,12.3-6.6,18.4-9.9
			c6.8-3.7,13.5-7.4,20.3-11.1c0.5-0.3,1.5-0.5,1.3-1.2c-0.1-0.7-1-0.5-1.6-0.6c-0.2,0-0.5,0-0.7,0c-5.8-0.1-11.6-0.1-17.5-0.2
			c-11-0.2-22-0.4-33-0.5c-0.6-0.4-1.4-0.3-2-0.3c-3.6,0-7.2,0-10.8-0.1c-8-0.2-16-0.4-24.1-0.6c-5.9-0.1-11.9,0-17.8-0.1
			c-2.2,0-4.4-0.3-6.3-1.6c-1.4-0.9-2.6-0.2-2.7,1.4c-0.1,2.8-0.1,5.7,0,8.6c0,0.8,0.2,1.8,1.2,1.9c0.9,0.1,1.7-0.4,2.1-1.3l0,0
			c3.8-0.6,7.6-0.1,11.5-0.1c9.6,0.2,19.2,0.1,28.8,0.4c9.1,0.2,18.2,0.3,27.3,0.4c1.4,0,2,0.3,1.4,1.8L90,30.5
			C89.5,30.4,89.2,30.6,89,31.1z M543.4,78.8l0,0.1c-0.9,1.2-0.5,2.6-0.4,3.9c0,0.7-0.3,1.6,0.5,2c0.5,0.3,0.9,0,1-0.6
			c0.8-0.5,0.3-2.8,2.2-1.5c0.5,0.5,0.9,1,1.4,1.5c0.4,0.4,0.8,0.9,1.4,0.7c0.7-0.2,0.8-0.8,0.8-1.4c0.1-1.3,0.1-2.6,0.1-4
			c0-0.9-0.3-1.5-1.4-1c-0.8,0.6-1.6,1.4-2.7,0.7c-0.2-0.2-0.5-0.4-0.7-0.6l0,0c-0.3-0.6-0.8-0.9-1.4-0.3c-0.2,0.1-0.5,0.2-0.7,0.2
			C543.4,78.7,543.4,78.7,543.4,78.8z M442,79.3c0.1-0.6,0.1-1.2-0.5-1.7c-1-0.7-4-0.5-5,0.3c-0.1,0-0.2,0.1-0.3,0.1
			c-0.4,0-0.6,0.2-0.6,0.7c0,0.4,0,0.8,0,1.3c-0.1,0.4,0.1,0.7,0.5,0.8c0,0,0,0,0,0c0,0.3,0.1,0.7,0,1c-1,2.2-1,2.3,1.4,2.7
			c0.7,0.1,1.5,0.1,2.2,0.1c2.6-0.3,3.3-1.6,2.3-4C442,80.1,442,79.7,442,79.3z M587,84.2c0-0.2,0-0.4,0.1-0.6
			c0.6-1.3,0.4-2.6,0.1-3.9c-0.1-0.6-0.4-1.1-1.1-1.1c-0.7,0-1,0.5-1.2,1.1c-0.3,1.1-0.2,2.2,0,3.3c0,0.2,0,0.4,0,0.6
			c-0.2,0.9-0.2,1.7,0.9,1.9C586.6,85.6,587,85,587,84.2z M428,82.8c0-1.4,0-2.7,0-4.1c0.1-0.8,0.1-1.4-0.9-1.4
			c-0.9,0-1.1,0.6-1,1.4c0,0.4,0,0.9-0.1,1.3c-0.5,0.9-0.3,1.9-0.2,2.8c0.1,0.7,0.3,1.4,1.2,1.3C428,84.2,428.1,83.6,428,82.8z
			 M577.1,82.8c0-0.8-0.2-1.4-0.8-2c-0.1-0.1-0.1-0.3-0.2-0.4c0,0,0.1-0.1,0-0.1c0-0.1-0.1-0.2-0.2-0.3c0-0.1-0.1-0.2-0.2-0.3
			c0-1.1-0.8-1.3-1.6-1.4c-0.9-0.1-1.7,0.1-2.1,0.9c-0.6,1.4-1.2,2.8-1.7,4.2c-0.2,0.5-0.3,1.2,0.2,1.6c0.6,0.4,1.1-0.1,1.5-0.4
			c1-0.8,2.1-1,3.1,0c0.6,0.6,1.4,1.2,2.1,0.4C578,84.5,578,83.5,577.1,82.8L577.1,82.8z M453.3,81.1c0.5-0.8,0.9-1.6,1.9-1.8
			c0.4-0.1,0.6-0.5,0.6-0.9c0-0.6-0.4-0.9-0.9-0.9c-1.8-0.2-3.6-0.2-5.4,0c-0.5,0.1-0.8,0.4-0.8,1c0,0.5,0.2,0.8,0.7,0.9
			c1.4,0.1,1.5,1,1.5,2.1c0,0.7,0.2,1.4,0.3,2.1c0.1,0.5,0.3,1.1,1,1c0.6-0.1,1.1-0.4,1.1-1.1C453.3,82.6,453.3,81.9,453.3,81.1
			L453.3,81.1z M408.6,34.7c-5.1,0.1-8.5,0.2-11.9,0.5c-6.5,0.6-13,1.5-19.1,3.7c-3.1,1.1-6,2.5-8.4,4.8c-3.7,3.5-4.2,7.8-1.1,11.8
			c2.5,3.3,6.1,5.1,9.9,6.5c9.9,3.7,20.3,4.3,30.7,4.5c8.5,0.2,17.1-0.4,25.4-2.7c4.6-1.3,9.2-2.9,12.8-6.3
			c3.7-3.5,4.2-8.4,0.9-12.3c-2.8-3.4-6.8-5-10.8-6.4C427.2,35.5,417.1,34.9,408.6,34.7z M514.2,61.4c-0.8-0.4-1.2-1-1.2-1.7
			c0-3.5,0.1-7,0.2-10.5c0-1.3,0.7-1.6,1.8-1c2.1,1.2,4.3,2.3,6.5,3.4c5.8,3.1,11.7,6.2,17.5,9.3c1.2,0.6,2.5,1.1,3.8,0.4
			c1.9-0.9,3.7-1.9,5.6-2.8c6.5-3.3,13.1-6.6,19.6-9.8c1.6-0.8,2.1-0.4,2.1,1.4c0,2.9-0.1,5.8-0.1,8.7c0,1-0.2,1.9-1,3
			c5.6,0,10.7,0,15.9,0c0.8,0,1.1-0.3,0.7-1.1c-0.1-0.3-0.3-0.7-0.3-1c0.1-5.6,0-11.3,0.5-16.9c0.1-1.7-0.5-1.7-1.5-1.9
			c-0.3,0-0.6,0-0.9,0c-3,0.2-5.9-0.1-8.9,0c-3.3,0.1-7.1-1.5-9.8,2.2c-0.6,0.8-2,1-3.1,1.5c-5.9,2.8-11.7,5.7-17.6,8.5
			c-1.1,0.6-2.2,0.7-3.5,0c-6.4-3.4-12.9-6.7-19.4-10c-0.6-0.3-1.5-0.7-1.4-1.2c0.2-1.8-1.1-1.4-2-1.4c-4.9-0.1-9.9-0.1-14.8-0.1
			c-1.3,0-2.7-0.2-4.1,0.3c0.9,0.8,1,1.8,1,2.9c-0.1,5.1-0.2,10.2-0.2,15.4c0,0.8-0.2,1.5-1,2.1C503.9,61.1,508.9,62,514.2,61.4z
			 M517.2,84.8c0.4,0.1,0.9,0.2,1.4,0.2c1.5,0,2.6-0.9,2.7-2.1c0.2-4.3-0.1-4.7-4.4-4.9c-0.5,0-0.9-0.1-1.4,0c-1,0-1.5,0.6-1.6,1.5
			c-0.1,1.3-0.1,2.5-0.1,3.8c0,1.2,0.7,1.7,1.8,1.6C516.2,84.9,516.6,84.9,517.2,84.8z"/>
		<path class="st1" d="M-1.2,14.7c0.7,0.5,1,1.1,1,1.9c0,3,0.3,6,0,9c-0.3,2.4,0,4.8,0.2,7.3c0.2,1.8,0.3,3.6-0.3,5.3
			c-0.1,0.4-0.2,0.9-0.2,1.4c0,4.8-0.3,9.7,0.1,14.5c0.3,4.1,0.4,8.1-0.1,12.1c-0.4,3-0.1,5.8,0,8.8c0,0.7,0.1,1.5-0.7,2
			C-1.2,56.2-1.2,35.4-1.2,14.7z"/>
		<path class="st1" d="M-1.2,78.3c1.8,3.8,0.8,7.8,0.9,11.8c0,0.6-0.2,1.3-0.9,1.5C-1.2,87.2-1.2,82.7-1.2,78.3z"/>
		<path class="st1" d="M-0.2,0.3c0.5,3.8-0.3,7.5-1,11.2c0-3.4,0.1-6.9,0-10.3C-1.3,0.1-0.8,0.4-0.2,0.3z"/>
		<path class="st2" d="M82.7,62.5c3.3,0,6.5,0,9.8,0.1c4.1,0.3,8.2,0.5,12.3,0.2c0.2,0,0.4,0,0.6,0c0.2,0,0.5,0,0.7,0
			c0.2,0,0.4,0,0.6,0c7.3,0.5,14.6,0.6,21.9,0.4c1.2,0,2.7-0.1,3.6-1.3c1.9-0.9,2.7-0.5,2.7,1.5c0,2.6,0,5.1-0.1,7.7
			c0,0.7,0,1.6-0.8,2c-0.8,0.4-1.5,0-2-0.6c-1-0.9-2.2-0.9-3.4-0.9c-9.8-0.3-19.5-0.4-29.3-0.4c-11.6-0.1-23.2-0.1-34.7-0.3
			c-14.5-0.4-29.1-0.5-43.6-0.6c-0.8,0-1.5-0.1-2.4-0.6c1.3-1.8,3.4-2.5,5.1-3.5c12.3-6.7,24.6-13.3,36.9-19.9
			c6-3.2,12.1-6.4,18.2-9.6c1.5-0.5,2.9-1,4-2.2c0,0,0.1-0.1,0.1-0.1c1.3-0.2,2.6-0.6,3.3-1.8c0,0,0.1,0,0.1,0c1.1,0,2-0.6,2.7-1.4
			c0,0,0.1,0,0.1,0c0.5,0,0.8-0.1,1-0.6c0,0,0.1-0.1,0.1-0.1c0.9-0.2,2.1-0.4,2-1.5c-0.1-0.8-1.2-0.9-2-0.9
			c-8.4-0.2-16.7-0.5-25.1-0.6c-6.1-0.1-12.1-0.1-18.2-0.2c-7.5-0.1-15-0.4-22.5-0.5c-1.1,0-2.5-0.3-3.2,1.2c0,0,0,0,0,0
			c-1,0-2.6,1.4-2.7-0.9c-0.1-2.6-0.1-5.2,0-7.9c0-1.3,1-1.7,1.9-1.1c2.1,1.5,4.6,1.4,6.9,1.5c6.9,0.2,13.8,0.2,20.8,0.4
			c6.1,0.2,12.2-0.1,18.3,0.2c4.8,0.2,9.7,0,14.5,0.2c0.4,0,0.7,0.1,0.9-0.4c11,0.2,22,0.4,33,0.5c5.8,0.1,11.6,0.2,17.5,0.2
			c0.2,0,0.5,0,0.7,0c0.6,0.1,1.5-0.1,1.6,0.6c0.1,0.7-0.8,0.9-1.3,1.2c-6.8,3.7-13.5,7.5-20.3,11.1c-6.1,3.3-12.3,6.6-18.4,9.9
			c-10,5.4-20,10.8-30,16.2c-0.4,0.2-0.7,0.5-1,0.7c-1,0-1.8,0.5-1.8,1.4c0,0.6,1.1,0.6,1.8,0.6c4.7,0,9.4-0.1,14-0.1
			c1.6,0,3.2,0,4.9,0C82.4,62.5,82.6,62.5,82.7,62.5z"/>
		<path class="st3" d="M300.5,38.1c2.5,1.7,5,3.5,6.4,6.2c2.4,4.4,1.7,8.9-1.9,12.7c-3,3.1-6.7,5-10.6,6.5
			c-10,3.7-20.5,5.1-31.1,5.7c-5.9,0.3-11.7,0.4-17.6,0.3c-9.5-0.3-19-1.2-28.4-3.3c-7.2-1.6-14.1-3.7-20.3-8
			c-4.8-3.4-6.8-8.8-4.9-13.7c1.3-3.4,4-5.5,7-7.3c3.8-2.2,7.8-3.9,12.1-4.7c0.4,0,0.8,0,1.2-0.1c4.5-1.3,9.2-2,13.8-2.5
			c6-0.6,12-1.6,18.1-1.2c0,0.5,0,1,0.1,1.5l-0.1,0c0,0,0.1,0,0.1,0c0.2,0.8,0.4,1.6,0.6,2.3c0.6,1.6,1.2,3,3.2,3.2
			c2.1,0.2,3.7-0.8,5.2-2c1.5-1.3,2.5-3,4.2-4.2c0.7-0.5,1-1.5,0.9-2.4c-0.4-0.1-0.6,0.1-0.7,0.3c-0.3,0.6-0.8,0.7-1.3,0.3
			c-0.5-0.5,0.1-0.8,0.4-1.1c0.4-0.4,0.8-0.8,1.2-1.3c0.3,0.1,0.6,0.1,1,0.2c0.7,3,0.7,3.1,3.8,3.5c2.7,0.4,5.4,0.5,8.1,0.8
			c8.6,1,16.9,2.6,24.9,6.1C297.5,36.7,298.7,38,300.5,38.1z M235.6,35.8L235.6,35.8c-2.9-0.3-5.7,0-8.5,0.7
			c-1.6,0.4-3.3,0.4-4.6,1.7c-2.3,1-4.6,2-6.7,3.4c-4.9,3.3-5.6,9.4-1.3,13.1c3.3,2.8,7.2,4.4,11.4,5.4c1.2,0.3,1.9-0.2,2.1-1.4
			c0.4-2.4,0.8-4.8,1.3-7.2c0-0.1,0.1-0.3,0.1-0.4c0-0.1,0.1-0.2,0.1-0.4c0.1-0.1,0.1-0.2,0.2-0.4c0.1-0.2,0.1-0.4,0.2-0.6
			c0.4,0,0.7,0,1.1,0c0.8,1.2,1.8,0.8,2.8,0.2c0.2,0.2,0.4,0.3,0.5,0.5c-0.4,3.5,0.2,7.1-0.4,10.6c-0.1,0.9,0.5,0.8,1.1,0.9
			c5.9,0.8,11.9,1,17.9,1.1c2.7,0.1,4.3-0.7,5.1-3.2c0.2,0,0.4,0,0.6,0c0,0.2-0.1,0.5-0.1,0.7c0,0.2-0.1,0.5-0.1,0.7
			c0.2,0.9,0.8,1.3,1.8,1.3c1,0,2.1,0,3.1-0.2c2.6-0.4,2.8-0.9,1.8-3.3c-0.9-2-1.8-4-1.4-6.3c0.9,0.4,1.1,1.9,2.6,1.5
			c2.2-0.6,3.6-2.5,2.9-4.7c-0.5-1.6-0.7-3.3-0.8-4.9c-0.2-3-1.3-5.4-4.3-6.6c-0.6-0.8-1.4-0.8-2.2-0.6c-1.1,0.3-2.1,0.7-3.2,1.1
			c-2.6,1-5.1,2-8,1.8c-1.8-0.1-3.5-0.4-5.2-0.9c-1.5-1.6-3.6-2.9-3.2-5.6c0.1-0.9-0.8-0.9-1.4-0.8c-1.8,0.3-3.5,0.8-4.8,2.2
			C235.8,35.5,235.7,35.6,235.6,35.8z M264.9,36c0.1,0.9,0.4,1.3,0.8,1.6c2.3,1.6,3.4,3.9,3.6,6.6c0.1,0.9,0.1,1.8,0.3,2.6
			c1.1,4.1,1.9,8.2,2.4,12.4c0.1,1.1,0.8,1.3,1.7,1.1c4.3-0.7,8.2-2.2,11.5-5c3.6-3.1,4.1-6.4,1.7-10.5c-1.5-2.5-4-3.8-6.5-5
			C275.5,37.6,270.3,36.5,264.9,36z M250.9,39.1c3.6,0.9,6.3-1.8,9.6-2.5c0.7-0.2,0.6-0.8-0.1-1c-1.1-0.4-2.1-0.7-3-1.4
			c-0.9-0.7-1.7-0.7-2.6,0.2c-1.3,1.3-2.9,2.2-4.6,2.7c-2.3,0.6-4.4-0.6-5.5-3c-0.2-0.3-0.2-0.7-0.6-0.7c-0.6,0-0.5,0.6-0.5,0.9
			c-0.1,1.7,0.7,3,2.2,3.8C247.3,38.9,249,39.5,250.9,39.1z M233.4,53.5c0-0.9,0.2-1.7-1.3-2c-1.5-0.2-1.6,0.6-1.8,1.6
			c-0.4,2-0.7,4-1.1,6c-0.4,1.7,0.7,2,2.1,2.3c1.6,0.3,1.6-0.8,1.7-1.8C233.1,57.5,233.2,55.5,233.4,53.5z M270.9,60.2
			c-0.1-1.3-0.2-2.3-0.3-3.3c-0.3-3-0.4-3.1-2.8-1.6c-0.7,0.5-2.4,0-2.2,1.5c0.2,1,0.5,2.1,1.1,3c0.2,0.3,0.4,0.6,0.5,0.9
			c0.4,1.7,1.6,0.9,2.5,0.8C270.7,61.5,271.2,61,270.9,60.2z"/>
		<path class="st4" d="M408.6,34.7c8.5,0.3,18.6,0.8,28.3,4.1c4,1.4,8,3,10.8,6.4c3.3,3.9,2.8,8.8-0.9,12.3c-3.6,3.5-8.2,5-12.8,6.3
			c-8.3,2.4-16.9,2.9-25.4,2.7c-10.4-0.2-20.8-0.8-30.7-4.5c-3.8-1.4-7.4-3.2-9.9-6.5c-3.1-4-2.6-8.4,1.1-11.8
			c2.4-2.3,5.3-3.7,8.4-4.8c6.2-2.2,12.6-3.1,19.1-3.7C400.1,34.9,403.5,34.8,408.6,34.7z M406.4,61.4c2.6,0.1,5.2-0.1,7.9-0.2
			c2.7-0.1,5.3-0.5,8-1c3.4-0.6,6.8-1.6,9.7-3.6c4.9-3.5,4.5-8.4,0.5-11.5c-1.8-1.4-3.9-2.3-6.1-2.9c-10.8-2.9-21.8-3.3-32.8-1.1
			c-3.7,0.7-7.2,1.7-10.3,4.1c-2.6,2-3.4,5.3-1.8,8.3c1.1,2,2.9,3.2,4.8,4.1C392.7,60.5,399.5,61.3,406.4,61.4z"/>
		<path class="st5" d="M514.2,61.4c-5.3,0.6-10.3-0.3-15.5,0c0.7-0.6,1-1.3,1-2.1c0.1-5.1,0.2-10.2,0.2-15.4c0-1.1-0.2-2.1-1-2.9
			c1.5-0.5,2.8-0.3,4.1-0.3c4.9,0,9.9,0,14.8,0.1c0.8,0,2.1-0.4,2,1.4c-0.1,0.5,0.9,0.9,1.4,1.2c6.5,3.3,12.9,6.6,19.4,10
			c1.3,0.7,2.3,0.5,3.5,0c5.9-2.8,11.7-5.7,17.6-8.5c1-0.5,2.5-0.7,3.1-1.5c2.7-3.7,6.4-2.1,9.8-2.2c3-0.1,5.9,0.1,8.9,0
			c0.3,0,0.6-0.1,0.9,0c1.1,0.2,1.7,0.1,1.5,1.9c-0.4,5.6-0.4,11.3-0.5,16.9c0,0.3,0.1,0.7,0.3,1c0.4,0.8,0.1,1.1-0.7,1.1
			c-5.2,0-10.4,0-15.9,0c0.9-1.1,1-2,1-3c0-2.9,0.1-5.8,0.1-8.7c0-1.8-0.5-2.2-2.1-1.4c-6.6,3.2-13.1,6.5-19.6,9.8
			c-1.9,0.9-3.7,1.9-5.6,2.8c-1.4,0.7-2.6,0.2-3.8-0.4c-5.9-3.1-11.7-6.2-17.5-9.3c-2.2-1.1-4.3-2.3-6.5-3.4c-1.2-0.6-1.8-0.3-1.8,1
			c-0.1,3.5-0.2,7-0.2,10.5C513,60.4,513.4,61,514.2,61.4z"/>
		<path class="st6" d="M21.1,27.9c0.6-1.5,2.1-1.2,3.2-1.2c7.5,0.1,15,0.4,22.5,0.5c6.1,0.1,12.1,0,18.2,0.2
			c8.4,0.2,16.7,0.4,25.1,0.6c0.8,0,2,0.1,2,0.9c0.1,1.1-1.1,1.3-2,1.5c0.6-1.5-0.1-1.8-1.4-1.8c-9.1-0.1-18.2-0.2-27.3-0.4
			c-9.6-0.2-19.2-0.2-28.8-0.4C28.7,27.8,24.9,27.3,21.1,27.9z"/>
		<path class="st6" d="M81.6,19.9c-0.1,0.4-0.5,0.4-0.9,0.4c-4.8-0.2-9.7,0-14.5-0.2C60.2,19.8,54,20,48,19.8
			c-6.9-0.2-13.9-0.2-20.8-0.4c-2.3-0.1-4.8,0-6.9-1.5c-0.9-0.6-1.9-0.2-1.9,1.1c-0.1,2.6-0.1,5.2,0,7.9c0.1,2.3,1.7,1,2.7,0.9
			c-0.4,0.9-1.1,1.4-2.1,1.3c-1-0.2-1.2-1.2-1.2-1.9c-0.1-2.8-0.2-5.7,0-8.6c0.1-1.6,1.3-2.3,2.7-1.4c2,1.3,4.1,1.6,6.3,1.6
			c5.9,0.1,11.9,0,17.8,0.1c8,0.1,16,0.4,24.1,0.6c3.6,0.1,7.2,0,10.8,0.1C80.2,19.7,81,19.5,81.6,19.9z"/>
		<path class="st6" d="M244.4,28.7c-6.1-0.3-12.1,0.6-18.1,1.2c-4.7,0.5-9.3,1.3-13.8,2.5c-0.4,0.1-0.8,0-1.2,0.1
			c0.3-0.7,1-0.7,1.6-0.9c6.2-1.5,12.4-2.4,18.8-2.9c3.3-0.3,6.6-0.7,9.9-0.7c1.7,0,2.4-1.1,2.6-3.1c0.2-2.2,0.9-4.2,2.2-6
			c1.1-0.8,0.2-1.8,0.3-2.8c0.2-0.3,0.4-0.5,0.6-0.8c0.2,0.3,0.4,0.5,0.7,0.8c0.1,0.7,0.3,1.2,1.1,0.8c1.1-0.6,1.6-0.1,1.9,0.8
			c-0.4,0.1-0.8,0.4-0.9,0.8c-1.2,0.3-2.8,0.2-3,1.6c-0.2,1.3-1.3,2.5-0.9,3.5c0.7,2-0.2,3.2-1.3,4.4
			C244.6,28.2,244.5,28.5,244.4,28.7z"/>
		<path class="st7" d="M300.5,38.1c-1.8-0.1-3-1.4-4.6-2c-8-3.4-16.3-5.1-24.9-6.1c-2.7-0.3-5.4-0.5-8.1-0.8c-3-0.4-3-0.5-3.8-3.5
			c2.1-0.9,4.1-1.7,6.2-2.6c0.1,0.1,0.3,0.2,0.4,0.3c-1,1.4-2.7,1.7-4.1,2.5c-0.6,0.3-1.5,0.5-1.3,1.4c0.2,0.9,1,1,1.8,1.1
			c7,0.5,13.9,1.4,20.7,2.8c4.1,0.9,8.1,2.2,12.1,3.8c1.4,0.6,2.8,1.2,4.1,1.8C299.7,37.1,300.3,37.4,300.5,38.1z"/>
		<path class="st8" d="M517.2,84.8c-0.6,0-1.1,0.1-1.5,0.1c-1.1,0.1-1.8-0.4-1.8-1.6c0-1.3,0-2.5,0.1-3.8c0-1,0.6-1.5,1.6-1.5
			c0.5,0,0.9,0,1.4,0c4.3,0.2,4.7,0.6,4.4,4.9c-0.1,1.3-1.2,2.2-2.7,2.1C518.1,85,517.6,84.9,517.2,84.8z M518.3,80.8
			c0.2-1.3,0.1-1.4-1.7-1.3c-0.2-0.6-0.6-0.9-1.2-0.7c-0.6,0.1-0.8,0.6-0.9,1.2c-0.2,1.1,0,2.2,0.2,3.3c0.1,0.4,0.1,0.9,0.6,1
			c0.7,0.1,0.8-0.5,0.9-1c0.7,0.6,1.6,0.7,2.3,0.2c0.6-0.4,0.3-1-0.1-1.5C518.5,81.5,518.4,81.1,518.3,80.8z"/>
		<path class="st7" d="M253.6,11.9c-0.1,1.9,1.2,1.6,2.2,1.2c1.4-0.6,2.8-1.5,4.1-2.2c0.5-0.3,1.1-0.6,1.4-0.1
			c0.4,0.6-0.3,0.8-0.7,1.2c-1.3,1.2-1.1,2,0.4,3.1c0.8,0.6,1.5,1.6,2.7,0.8c0,0.4,0,0.9-0.5,1c-0.5,0-0.9,0-1.4,0
			c-1.7,0.2-3.2-0.4-4-1.8c-0.6-1-1-0.7-1.7-0.5c-1.4,0.4-2.8,1.2-4.2,0.1c0.9,0.1,1.4-0.3,1.3-1.3
			C253.2,12.9,253.3,12.3,253.6,11.9z"/>
		<path class="st8" d="M476,80.4c0.2-0.6,0.3-1.3,0.6-1.8c0.7-1.3,2.7-1.2,3.5,0c0.8,1.3,1.3,2.7,1.6,4.2c0.1,0.6,0.5,1.2-0.2,1.5
			c-0.6,0.3-1.2,0.2-1.6-0.5c-0.1-0.8-1-1-1.1-1.7c0-0.2,0.1-0.5,0.1-0.7c0.1-0.1,0.1-0.2,0-0.2c-0.1-0.4,0-0.9-0.6-0.9
			c-0.5,0-0.5,0.5-0.6,0.9c0,0.3,0,0.7,0,1c-0.3,0.7-0.8,1.2-1.6,1.3c-0.7,0-0.7-0.6-0.9-1c0-0.2,0.1-0.4,0.1-0.6
			c0-0.1,0.1-0.1,0.1-0.2c0.1-0.2,0.2-0.3,0.2-0.5c0.1,0,0.1-0.1,0.1-0.2c0,0,0.1-0.1,0.1-0.1C475.9,80.7,475.9,80.5,476,80.4z"/>
		<path class="st6" d="M263.3,16.8c0.5-0.2,0.5-0.6,0.5-1c0.5-0.4,1-0.8,1.7-0.8c0.2,0.3,0.5,0.7,0.7,1c-1.1,0.6-1.4,1.8-2.3,2.6
			c-0.6,0.6-0.3,1.4,0.2,2.1c0.5,0.6,1.1,0.3,1.7,0.1c1.1-0.5,2.1-0.9,3.3-0.6c0.3,0.1,0.6,0.1,0.6,0.5c0,0.2-0.2,0.5-0.4,0.5
			c-1.5,0.3-2.3,1.7-3.6,2.3c-0.1-0.1-0.3-0.2-0.4-0.3c0.4-1.5-0.6-0.7-1.1-0.7c-0.6,0-1.3,0.8-1.8-0.2c-1.1-2.1-0.9-2.9,0.7-4.9
			C263.2,17.2,263.2,16.9,263.3,16.8z"/>
		<path class="st8" d="M467.7,82.2c-0.2,0.5-0.3,1-0.6,1.4c-0.8,1.3-2.3,1.2-3-0.2c-0.6-1.1-1-2.3-1.5-3.5c-0.4-0.8-0.7-1.7,0.3-2.3
			c1-0.5,1.1,0.7,1.6,1.1c0.2,0.1,0.2,0.4,0.3,0.6c0.1,0.2,0.2,0.4,0.3,0.6c0,0,0,0,0,0c0,0.4,0.2,0.8,0.7,0.9
			c0.5,0,0.7-0.4,0.7-0.8c0.1-0.1,0.1-0.3,0.2-0.4c0.1-0.1,0.2-0.2,0.2-0.3c0,0,0,0,0,0c1.1-0.2,1.4,0.4,1.3,1.4l0,0
			C467.5,81,467.7,81.6,467.7,82.2z"/>
		<path class="st6" d="M577.1,82.8c0.9,0.6,0.9,1.6,0.3,2.3c-0.7,0.8-1.4,0.2-2.1-0.4c-1-1-2.1-0.9-3.1,0c-0.4,0.4-0.9,0.9-1.5,0.4
			c-0.6-0.4-0.4-1.1-0.2-1.6c0.5-1.4,1-2.8,1.7-4.2c0.4-0.8,1.2-1.1,2.1-0.9c0.8,0.1,1.6,0.3,1.6,1.4c-0.3-0.2-0.7-0.4-1-0.6
			c-0.5-0.2-1-0.3-1.4,0.1c-0.4,0.5-0.2,0.9,0.2,1.4c-0.6,1.9-0.5,2.1,1,1.9C575.9,84.4,576.4,84.4,577.1,82.8z"/>
		<path class="st6" d="M442,80.5c1.1,2.4,0.4,3.8-2.3,4c-0.7,0.1-1.5,0.1-2.2-0.1c-2.4-0.4-2.4-0.5-1.4-2.7c0.1-0.3,0-0.7,0-1
			c1.6-0.3,2.9,0.2,4.2,1c-0.1,0.4-0.5,0.9,0,1.2c0.3,0.3,0.8,0.2,1.1,0c0.5-0.2,0.6-0.6,0.5-1.1c-0.1-0.3-0.2-0.5-0.3-0.8
			c-0.1-0.2-0.2-0.4-0.3-0.7C441.6,80.5,441.8,80.5,442,80.5z"/>
		<path class="st8" d="M549,78.7c1.1-0.5,1.4,0.1,1.4,1c0,1.3,0,2.6-0.1,4c0,0.5-0.2,1.2-0.8,1.4c-0.7,0.2-1.1-0.3-1.4-0.7
			c-0.5-0.5-0.9-1-1.4-1.5c-0.2-0.7,0.5-1.1,0.6-1.7C549,81,548.6,79.6,549,78.7z"/>
		<path class="st9" d="M132.3,61.9c-0.9,1.2-2.4,1.3-3.6,1.3c-7.3,0.2-14.6,0.1-21.9-0.4c1.1-0.9,2.3-0.4,3.5-0.3
			c6.7,0.2,13.5,0.5,20.2-0.2C131.1,62.2,131.7,62,132.3,61.9z"/>
		<path class="st6" d="M453.3,81.1c0,0.8,0,1.5,0,2.3c0,0.7-0.5,1-1.1,1.1c-0.7,0.1-0.9-0.5-1-1c-0.1-0.7-0.2-1.4-0.3-2.1
			c0-1.1-0.1-2-1.5-2.1c-0.5,0-0.7-0.4-0.7-0.9c0-0.5,0.3-0.9,0.8-1c1.8-0.2,3.6-0.2,5.4,0c0.5,0,0.9,0.4,0.9,0.9
			c0,0.4-0.2,0.8-0.6,0.9C454.1,79.5,453.7,80.3,453.3,81.1c-0.1-0.7,0.1-1.2,0.4-1.8c0.2-0.4,0.8-0.8,0.2-1.2
			c-0.8-0.5-1.8-0.7-2.6-0.3c-0.6,0.3-0.5,0.9-0.2,1.4c0.5,0.9,0.5,1.7,0.5,2.7c0,0.6-0.1,1.4,0.6,1.4c0.9,0.1,0.7-0.8,0.8-1.4
			C453,81.6,453.2,81.4,453.3,81.1z"/>
		<path class="st8" d="M491,83.2c0,0.1,0,0.2-0.1,0.3c-0.7,0-1.1-0.3-1.2-1c-0.2-1.6-0.5-3.2,0.5-4.7c0,0,0,0,0,0
			c0.5,0,0.9,0.1,1.4,0.1c0,0,0,0,0,0c0.1,0.3,0.3,0.6,0.6,0.7c0.2,0.9,1.1,1.4,1.5,2.2c-0.1,0.2-0.3,0.5-0.4,0.7
			C491.2,81,491.2,81,491,83.2z"/>
		<path class="st4" d="M493.4,81.5c0.1-0.2,0.3-0.5,0.4-0.7c0.8,0,1.2-0.5,1.4-1.3c0.2-0.9,0.6-1.4,1.6-1.1c0.3,1.8,0.1,3.6-0.2,5.4
			C494.7,84.2,494,82.9,493.4,81.5z"/>
		<path class="st9" d="M77.5,62.5c-4.7,0-9.4,0.1-14,0.1c-0.7,0-1.8,0-1.8-0.6c-0.1-0.9,0.8-1.4,1.8-1.4c0,1.3,0.8,1.5,1.8,1.5
			c3.4,0,6.7,0,10.1,0C76.1,61.9,76.9,61.8,77.5,62.5z"/>
		<path class="st6" d="M253.6,11.9c-0.3,0.4-0.4,1-0.3,1.5c0.1,1-0.4,1.4-1.3,1.3c-0.6-0.4,0.7-1.9-0.9-1.6
			c-0.3-0.2-0.6-0.3-0.8-0.5c1-1.4,2.3-2.5,3.7-3.5c0.3-0.2,0.7-0.8,1.2-0.4c0.4,0.4-0.1,0.8-0.3,1.2c-0.1,0.2-0.3,0.4-0.4,0.6
			c-0.1,0.2-0.2,0.4-0.4,0.7c0,0,0,0,0,0C253.8,11.4,253.7,11.6,253.6,11.9L253.6,11.9z"/>
		<path class="st4" d="M529.2,81.5c0.3-0.7,0.7-1.4,1-2.2c0.3-0.2,0.7-0.4,1-0.7c0.1,0,0.2-0.1,0.3-0.1c0.4,0,0.7,0,1.1,0
			c0.2,0,0.5,0,0.7,0c0,0,0,0,0,0c0,0.2,0,0.5,0,0.7c0.1,0.6-0.3,1-0.7,1.4c-1.6-0.5-1.5,0.7-1.6,1.7c-0.3,0.6-0.6,1.6-1.5,1.3
			c-0.8-0.2-0.3-1.1-0.4-1.7C529.2,81.9,529.2,81.7,529.2,81.5z"/>
		<path class="st8" d="M544.4,84.3c-0.1,0.5-0.5,0.8-1,0.6c-0.8-0.5-0.5-1.3-0.5-2c0.3-1.3,0.7-2.5,0.4-3.9c0,0,0-0.1,0-0.1
			c0.2,0,0.2,0,0.1-0.2c0.2-0.1,0.5-0.2,0.7-0.2c0.5,0.1,0.9,0.2,1.4,0.3c0,0,0,0,0,0c1.2,2.1-0.9,3.1-1.6,4.5
			c-0.1,0.2-0.7,0.3-0.6,0.7C543.5,84.4,544,84.3,544.4,84.3z"/>
		<path class="st6" d="M559,80.6c-0.7-0.5-1.2-1.1-0.7-1.9c0.5-0.6,1.3-0.4,1.9,0c1,0.7,1.8,0.6,2.7-0.1c0.4-0.3,0.7-0.4,1.1,0
			c0.3,0.3,0.3,0.6,0.1,0.9c-0.4,0.9-0.7,1.9-1.6,2.4c0-0.2-0.1-0.5-0.1-0.7c-0.3-1.2-1.6-1.1-2.4-1.7
			C559.3,79.2,559.3,80.1,559,80.6z"/>
		<path class="st8" d="M441.3,80.5c0.1,0.2,0.2,0.4,0.3,0.7c-0.6,0-1.1,0-1.3,0.7c-1.3-0.8-2.7-1.3-4.2-1c0,0,0,0,0,0
			c0-0.4-0.2-0.7-0.5-0.8c0-0.4,0-0.8,0-1.3c0.3-0.1,0.5-0.3,0.6-0.7c0.1,0,0.2-0.1,0.3-0.1c1,0.3,2.3-0.5,3.2,0.7
			c-0.3,0-0.6,0-0.8,0.1c-0.4,0.1-1,0.2-1,0.7c0,0.6,0.6,0.5,1.1,0.6C439.7,80.2,440.5,80.3,441.3,80.5z"/>
		<path class="st8" d="M559,80.6c0.2-0.4,0.3-1.4,0.9-1c0.8,0.5,2.1,0.5,2.4,1.7c0.1,0.2,0.1,0.5,0.1,0.7c-0.1,0.2-0.1,0.4-0.2,0.6
			c0,0,0,0.1,0,0.1c0,0.1,0,0.1-0.1,0.2c0,0.2-0.1,0.3-0.1,0.5c-0.1,0.3-0.1,0.6-0.2,0.9c-0.5,0-1.1,0-1.6,0c0-0.1-0.1-0.2-0.1-0.3
			c0-0.6,0.2-1.3-0.3-1.8c-0.1-0.1-0.1-0.2-0.1-0.2c-0.1-0.2-0.2-0.3-0.2-0.5C559.4,81.2,559.2,80.9,559,80.6z"/>
		<path class="st4" d="M577.1,82.8c-0.7,1.6-1.2,1.5-2.5-0.3c0-0.8,0.2-1.7-1-1.9c-0.3-0.4-0.6-0.9-0.2-1.4c0.4-0.4,0.9-0.3,1.4-0.1
			c0.4,0.2,0.7,0.4,1,0.6c0.1,0.1,0.1,0.2,0.2,0.3c0,0.1,0.1,0.3,0.1,0.4c0.1,0.1,0.1,0.3,0.2,0.4C576.4,81.6,576.2,82.4,577.1,82.8
			L577.1,82.8z"/>
		<path class="st8" d="M426,80.1c0-0.4,0-0.9,0.1-1.3c0.6-0.6,1.3-0.6,1.9,0c0,1.4,0,2.7,0,4.1c-1.2,0.2-1.8-0.2-1.7-1.4
			C426.4,80.9,426.3,80.5,426,80.1z"/>
		<path class="st8" d="M532.6,80.8c0.4-0.4,0.8-0.8,0.7-1.4c0.1,0,0.3,0,0.4,0c0.1,0.2,0.3,0.4,0.4,0.7c0.1,0.1,0.1,0.3,0.2,0.4
			c0,0.1,0.1,0.2,0.1,0.3c0.1,0.1,0.1,0.3,0.2,0.4c0,0.1,0.1,0.3,0.1,0.4c-0.2,1,0.8,2.7-1.3,2.7c0,0,0,0,0,0c0-0.7-0.5-1.2-0.8-1.8
			C532.6,81.9,532.6,81.3,532.6,80.8z"/>
		<path class="st6" d="M532.6,82.5c0.3,0.6,0.7,1.1,0.8,1.8c-1.1-0.4-2.2-0.7-3.2,0.3c-0.6,0.6-1.2,0.5-1.7,0.2
			c-0.6-0.4-0.3-1-0.1-1.6c0.3-0.6,0.6-1.1,0.8-1.7c0,0.2,0,0.3,0,0.5c0,0.6-0.4,1.4,0.4,1.7c0.9,0.3,1.2-0.6,1.5-1.3
			C531.6,82.5,532.1,82.5,532.6,82.5z"/>
		<path class="st9" d="M104.8,62.8c-4.1,0.3-8.2,0.1-12.3-0.2c2.9-0.6,5.9-0.2,8.8-0.2C102.4,62.3,103.7,61.8,104.8,62.8z"/>
		<path class="st8" d="M584.9,83.5c0-0.2,0-0.4,0-0.6c0.8-0.6,0.4-1.5,0.5-2.3c0.1-0.4-0.1-1.1,0.6-1.1c0.6,0,0.7,0.6,0.7,1
			c0.2,1-0.2,2,0.3,2.9c0,0.2,0,0.4-0.1,0.6C586.2,84.4,585.5,84,584.9,83.5z"/>
		<path class="st6" d="M587.1,83.5c-0.4-0.9-0.1-2-0.3-2.9c-0.1-0.5-0.2-1-0.7-1c-0.7,0-0.5,0.6-0.6,1.1c-0.1,0.8,0.3,1.7-0.5,2.3
			c-0.2-1.1-0.3-2.2,0-3.3c0.1-0.6,0.5-1.1,1.2-1.1c0.7,0,1,0.5,1.1,1.1C587.4,80.9,587.7,82.2,587.1,83.5z"/>
		<path class="st6" d="M544.4,84.3c-0.4,0-0.9,0.1-1-0.4c-0.1-0.4,0.5-0.5,0.6-0.7c0.7-1.5,2.8-2.4,1.6-4.5c0.2,0.2,0.5,0.4,0.7,0.6
			c0.1,0.7,0.7,1.1,1,1.7c-0.1,0.6-0.8,1-0.6,1.7C544.7,81.5,545.2,83.8,544.4,84.3z"/>
		<path class="st6" d="M439.6,78.7c-0.8-1.3-2.1-0.4-3.2-0.7c1-0.8,4-1,5-0.3c0.6,0.4,0.6,1,0.5,1.7
			C441.1,79.3,440.3,79.1,439.6,78.7z"/>
		<path class="st6" d="M493.4,81.5c0.6,1.4,1.3,2.7,3.2,2.3c-0.2,1.3-1,1.1-1.7,0.6c-0.6-0.4-0.9-1-1.4-1.5
			c-0.9-0.8-1.7-1.2-2.4,0.2C491.2,81,491.2,81,493.4,81.5z"/>
		<path class="st6" d="M478.8,82.1c0.1,0.7,1,0.9,1.1,1.7c-1.2-0.4-2.4-0.7-3.5,0.5c-0.5,0.5-1.1,0.3-1.5-0.1
			c-0.6-0.7-0.2-1.2,0.4-1.7c0.2,0.5,0.2,1.1,0.9,1c0.8,0,1.3-0.6,1.6-1.3C478.1,82.1,478.4,82.1,478.8,82.1z"/>
		<path class="st9" d="M439.6,78.7c0.7,0.4,1.5,0.6,2.4,0.7c0,0.4,0,0.8,0,1.2c-0.2,0-0.4,0-0.7,0c-0.8-0.2-1.7-0.3-2.5-0.5
			c-0.4-0.1-1,0-1.1-0.6c0-0.6,0.6-0.6,1-0.7C439,78.6,439.3,78.7,439.6,78.7z"/>
		<path class="st6" d="M490.3,77.9c-1,1.5-0.7,3.1-0.5,4.7c0.1,0.6,0.5,1,1.2,1c0.1,0.4,0.1,0.8-0.5,1c-0.2-0.1-0.5-0.1-0.7-0.2
			c-1.2-1.8-0.8-3.7-0.4-5.6C489.4,78.2,489.7,77.9,490.3,77.9z"/>
		<path class="st6" d="M426,80.1c0.3,0.4,0.3,0.9,0.3,1.3c-0.1,1.3,0.5,1.7,1.7,1.4c0.1,0.8,0,1.4-1,1.5c-0.9,0.1-1.2-0.7-1.2-1.3
			C425.7,82,425.5,81,426,80.1z"/>
		<path class="st7" d="M250.1,12.6c0.3,0.2,0.6,0.3,0.8,0.5c-1,1-2,2-3,3.1c-0.2-0.3-0.4-0.5-0.7-0.8
			C247.9,14.1,249,13.3,250.1,12.6z"/>
		<path class="st7" d="M266.2,16c-0.2-0.3-0.5-0.7-0.7-1c1.4-0.4,2.8-0.2,4.2,0C268.7,15.9,267.5,15.9,266.2,16z"/>
		<path class="st6" d="M468.3,80.8c0-0.9-0.3-1.5-1.3-1.4c0.3-0.9,0.6-2.2,1.8-1.7c1.2,0.5,0.3,1.6,0,2.4
			C468.7,80.3,468.5,80.5,468.3,80.8z"/>
		<path class="st7" d="M496.8,78.4c-1-0.2-1.4,0.3-1.6,1.1c-0.1,0.8-0.5,1.3-1.4,1.3c-0.4-0.8-1.3-1.3-1.5-2.2c0.1,0,0.2,0,0.3,0
			c0.9,0.6,1.8,2,2.5-0.3C495.4,77.5,496.2,77.6,496.8,78.4z"/>
		<path class="st6" d="M533.3,84.3c2.2-0.1,1.1-1.7,1.3-2.7c0.7,0.6,0.7,1.5,0.8,2.4c0,0.7-0.3,1.1-0.9,1.2
			C533.8,85.3,533.5,84.9,533.3,84.3z"/>
		<path class="st9" d="M547.3,81c-0.3-0.6-1-1-1-1.7c1.1,0.8,1.9,0,2.7-0.7C548.6,79.6,549,81,547.3,81z"/>
		<path class="st6" d="M584.9,83.5c0.6,0.5,1.2,0.9,2.1,0.7c0,0.9-0.4,1.4-1.2,1.3C584.8,85.2,584.7,84.4,584.9,83.5z"/>
		<path class="st6" d="M82.7,34.4c-1.1,1.2-2.5,1.7-4,2.2C79.8,35.3,81.2,34.8,82.7,34.4z"/>
		<path class="st6" d="M86.1,32.5c-0.8,1.2-2,1.6-3.3,1.8C83.7,33.4,84.9,32.9,86.1,32.5z"/>
		<path class="st6" d="M428,78.7c-0.6-0.5-1.3-0.6-1.9,0c-0.1-0.8,0.1-1.4,1-1.4C428.1,77.3,428.1,78,428,78.7z"/>
		<path class="st6" d="M543.3,79c0.3,1.3-0.1,2.6-0.4,3.9C542.8,81.5,542.5,80.2,543.3,79z"/>
		<path class="st6" d="M88.9,31.1c-0.8,0.8-1.6,1.4-2.7,1.4C86.7,31.3,87.9,31.4,88.9,31.1z"/>
		<path class="st6" d="M560.3,84.2c0.5,0,1.1,0,1.6,0c0.1,0.6-0.2,1-0.8,1.1C560.5,85.3,560.2,84.8,560.3,84.2z"/>
		<path class="st7" d="M246.7,16.1c0,0.9,0.8,1.9-0.3,2.8C246.4,17.9,246.1,17,246.7,16.1z"/>
		<path class="st6" d="M466.6,80.1c-0.1,0.4-0.2,0.8-0.7,0.8c-0.5,0-0.6-0.4-0.7-0.9C465.6,80.1,466.1,80.1,466.6,80.1z"/>
		<path class="st6" d="M577.1,82.8c-0.9-0.4-0.7-1.2-0.8-2C576.9,81.4,577.1,82.1,577.1,82.8z"/>
		<path class="st6" d="M545.5,78.7c-0.5-0.1-0.9-0.2-1.4-0.3C544.8,77.8,545.2,78.1,545.5,78.7z"/>
		<path class="st6" d="M491.7,78c-0.5,0-0.9-0.1-1.4-0.1C490.8,77.1,491.3,77.5,491.7,78z"/>
		<path class="st6" d="M467.7,82.2c0-0.6-0.1-1.2,0.6-1.5C468.3,81.3,468,81.8,467.7,82.2z"/>
		<path class="st6" d="M492.7,78.7c-0.1,0-0.2,0-0.3,0c-0.3-0.1-0.5-0.3-0.6-0.7C492.1,78,492.5,78.3,492.7,78.7z"/>
		<path class="st6" d="M531.6,78.6c-0.1,0-0.2,0-0.3,0.1c-0.2,0-0.5,0-0.7,0c0.2-0.5,0.6-0.6,1.1-0.5
			C531.6,78.3,531.6,78.5,531.6,78.6z"/>
		<path class="st8" d="M531.6,78.6c0-0.2,0.1-0.3,0.1-0.5c0.4,0,0.7,0,1.1,0.1c0,0.2-0.1,0.3-0.1,0.4
			C532.3,78.7,531.9,78.6,531.6,78.6z"/>
		<path class="st6" d="M90,30.5c-0.2,0.5-0.5,0.6-1,0.6C89.2,30.6,89.5,30.4,90,30.5z"/>
		<path class="st6" d="M559.9,82.2c0.5,0.5,0.4,1.2,0.3,1.8C559.9,83.4,559.9,82.8,559.9,82.2z"/>
		<path class="st6" d="M435.6,80c0.4,0.1,0.5,0.4,0.5,0.8C435.7,80.7,435.5,80.4,435.6,80z"/>
		<path class="st8" d="M530.5,78.7c0.2,0,0.5,0,0.7,0c-0.3,0.2-0.7,0.4-1,0.7C530.3,79.1,530.4,78.9,530.5,78.7z"/>
		<path class="st6" d="M436.2,78.1c-0.1,0.3-0.3,0.6-0.6,0.7C435.6,78.3,435.8,78.1,436.2,78.1z"/>
		<path class="st8" d="M489.8,84.3c0.2,0.1,0.5,0.1,0.7,0.2C490.2,84.6,490,84.6,489.8,84.3z"/>
		<path class="st9" d="M106.1,62.8c-0.2,0-0.5,0-0.7,0C105.6,62.6,105.9,62.6,106.1,62.8z"/>
		<path class="st6" d="M533.7,79.4c-0.1,0-0.3,0-0.4,0c0-0.2,0-0.5,0-0.7C533.6,78.8,533.7,79.1,533.7,79.4z"/>
		<path class="st7" d="M253.6,11.8c0.1-0.2,0.2-0.4,0.3-0.7C253.8,11.4,253.7,11.6,253.6,11.8z"/>
		<path class="st6" d="M465.1,80c-0.1-0.2-0.2-0.4-0.3-0.6C464.9,79.6,465,79.8,465.1,80z"/>
		<path class="st7" d="M254,11.2c0.1-0.2,0.2-0.4,0.4-0.7C254.2,10.7,254.1,10.9,254,11.2z"/>
		<path class="st6" d="M532.6,78.7c0-0.1,0.1-0.3,0.1-0.4c0.3,0,0.5,0.2,0.6,0.5C533.1,78.7,532.8,78.7,532.6,78.7z"/>
		<path class="st6" d="M475.4,81.6c0,0.1,0,0.1-0.1,0.2c0,0-0.1-0.1-0.1-0.1L475.4,81.6z"/>
		<path class="st6" d="M466.9,79.4c0,0.1-0.1,0.2-0.2,0.3C466.8,79.6,466.9,79.5,466.9,79.4z"/>
		<path class="st6" d="M559.6,81.5c0.1,0.2,0.2,0.3,0.2,0.5C559.7,81.8,559.6,81.6,559.6,81.5z"/>
		<path class="st6" d="M534.3,80.4c-0.1-0.1-0.1-0.3-0.2-0.4C534.1,80.2,534.2,80.3,534.3,80.4z"/>
		<path class="st6" d="M576.1,80.4c0-0.1-0.1-0.3-0.1-0.4c0.1,0.1,0.1,0.2,0.2,0.3C576.2,80.3,576.2,80.4,576.1,80.4z"/>
		<path class="st6" d="M543.5,78.6c0.1,0.2,0.1,0.2-0.1,0.2C543.4,78.7,543.4,78.7,543.5,78.6z"/>
		<polygon class="st6" points="562.3,82.7 562.3,82.6 562.4,82.7 		"/>
		<path class="st6" d="M475.7,80.9c0,0.1-0.1,0.1-0.1,0.2c0,0,0-0.1,0-0.1L475.7,80.9z"/>
		<path class="st6" d="M476,80.4c-0.1,0.1-0.1,0.3-0.2,0.4C475.9,80.7,475.9,80.5,476,80.4z"/>
		<path class="st6" d="M534.6,81.1c-0.1-0.1-0.1-0.3-0.2-0.4C534.5,80.9,534.5,81,534.6,81.1z"/>
		<path class="st9" d="M82.7,62.5c-0.1,0-0.3,0-0.4,0C82.4,62.5,82.6,62.5,82.7,62.5z"/>
		<path class="st6" d="M562.1,83.3c0-0.2,0.1-0.3,0.1-0.5C562.2,83,562.1,83.1,562.1,83.3z"/>
		<path class="st10" d="M264.9,36c5.4,0.5,10.6,1.6,15.5,3.9c2.5,1.2,5.1,2.5,6.5,5c2.4,4.1,1.9,7.4-1.7,10.5
			c-3.3,2.8-7.2,4.4-11.5,5c-0.9,0.1-1.6,0-1.7-1.1c-0.5-4.2-1.3-8.3-2.4-12.4c-0.2-0.8-0.2-1.7-0.3-2.6c-0.2-2.8-1.3-5-3.6-6.6
			C265.3,37.4,264.9,36.9,264.9,36z"/>
		<path class="st10" d="M229.8,49.6c-0.1,0.2-0.1,0.4-0.2,0.6c-0.1,0.1-0.1,0.2-0.2,0.4c0,0.1-0.1,0.2-0.1,0.4
			c0,0.1-0.1,0.3-0.1,0.4c-0.4,2.4-0.8,4.8-1.3,7.2c-0.2,1.2-0.9,1.7-2.1,1.4c-4.2-1.1-8.1-2.7-11.4-5.4c-4.3-3.6-3.6-9.8,1.3-13.1
			c2.1-1.4,4.4-2.4,6.7-3.4c1.2,0,2.4-0.2,3.6-0.6c1.8-0.7,3.6-0.8,5.4-1.1c1.6-0.3,1.9,0.2,1.5,1.7c-0.3,1.2-0.8,2.4-1.1,3.7
			C231.3,44.4,230.2,46.9,229.8,49.6z"/>
		<path class="st11" d="M244.4,28.7c0.1-0.2,0.2-0.5,0.3-0.6c1.2-1.3,2-2.4,1.3-4.4c-0.4-1.1,0.7-2.3,0.9-3.5c0.2-1.3,1.9-1.3,3-1.6
			c0.5,0.4,1,0.8,1.6,1.2c0,0,0,0.1,0,0.1l0.1,0.1c0,0.4-0.1,0.8-0.1,1.1c-0.2,0.4,0,0.6,0.3,0.6c1.6-0.3,2.2,0.9,3,1.8
			c0.2,0.3,0.2,0.8,0.8,0.7c0.3,0.6-0.2,1.8,1.1,1.8c0.9,0,0.4-0.8,0.6-1.2c0.5,0,1,0.1,1,0.7c-0.4,0.4-0.8,0.9-1.2,1.3
			c-0.3,0.3-0.9,0.6-0.4,1.1c0.5,0.5,0.9,0.3,1.3-0.3c0.1-0.2,0.3-0.4,0.7-0.3c0.1,0.9-0.2,1.9-0.9,2.4c-1.7,1.1-2.7,2.9-4.2,4.2
			c-1.5,1.3-3,2.3-5.2,2c-2-0.2-2.7-1.6-3.2-3.2c-0.3-0.8-0.4-1.6-0.6-2.3c0,0,0-0.1,0-0.1C244.5,29.7,244.4,29.2,244.4,28.7z
			 M251.5,28c0.6,0,1.3,0.1,1.3-0.7c-0.1-1.2-1.2-1.2-2.1-1.4c-0.4-0.1-1,0-0.9,0.7C249.9,27.8,250.7,28,251.5,28z M248.5,33.5
			c0.1-1.3-0.8-1.6-1.7-1.7c-0.4-0.1-1,0.4-0.8,0.7c0.6,0.7,0.6,2,1.8,2.1C248.5,34.6,248.4,33.9,248.5,33.5z M247.8,28.8
			c-0.1-0.5-0.4-0.7-0.9-0.7c-0.4,0.1-0.8,0.3-0.7,0.8c0.1,0.4,0.3,0.6,0.7,0.6C247.4,29.4,247.8,29.3,247.8,28.8z M252.2,25
			c0.5,0,0.5-0.4,0.5-0.7c-0.1-0.5-0.4-0.7-0.8-0.7c-0.4,0-0.7,0.2-0.6,0.6C251.3,24.7,251.7,24.9,252.2,25z"/>
		<path class="st12" d="M257.9,59.8c-0.7,2.6-2.4,3.3-5.1,3.2c-6-0.2-12-0.3-17.9-1.1c-0.6-0.1-1.2-0.1-1.1-0.9
			c0.6-3.5,0.1-7.1,0.4-10.6c1.2-2.3,1.1-4.8,1.3-7.3c0-0.4-0.3-0.7-0.7-0.6c-0.5,0.1-0.5,0.6-0.5,1c0.2,2.2-0.7,4.2-0.7,6.4
			c-1,0.6-1.9,1-2.8-0.2c1.5-4.6,2.6-9.4,4.6-13.8c0,0,0,0,0,0c0.1-0.1,0.2-0.3,0.3-0.4c1.3-1.4,3-1.9,4.8-2.2
			c0.6-0.1,1.5-0.2,1.4,0.8c-0.3,2.7,1.7,4,3.2,5.6l-0.1,0.1c-0.3,0.2-0.7,0.7-1.1,0.2c-1-1.3-2.6-2.2-2.7-4.1
			c-0.1-1-0.5-1.4-1.6-1.2c-2.4,0.4-5.1,3.6-5.1,6c0,0.4,0,0.8,0.3,0.9c1.9,0.9,1.6,2.7,1.3,4.1c-0.8,4.5-1.1,9.1-1.4,13.7
			c-0.1,1.4,0.4,1.9,1.7,2c2.6,0.1,5.3,0.1,7.9,0.5c3.3,0.5,6.7,0.1,10.1,0.2c0.6,0,1.1-0.1,1.4-0.8c0.9-2.6,1.9-5.2,2.9-7.8
			c0.7-1.8,1.1-3.6,0.7-5.6c-0.2-0.8,0.1-1.9,0.9-2.1c0.8-0.3,1.2,0.7,1.5,1.4c0.7,1.6,1.4,3.2,2.1,4.8c0.4,1,1.1,1.2,2.1,1.1
			c1.6-0.1,2.5-1.6,2-3.4c-0.4-1.7-0.8-3.4-0.9-5.1c-0.2-1.8-0.8-3.5-2.3-4.7c-0.5-0.4-1-0.8-1.2-1.4c0,0,0.1-0.1,0.1-0.1
			c3,1.2,4.1,3.6,4.3,6.6c0.1,1.7,0.3,3.3,0.8,4.9c0.7,2.2-0.7,4.1-2.9,4.7c-1.5,0.4-1.7-1.1-2.6-1.5c0,0,0,0,0,0
			c0-0.1,0.1-0.2,0.1-0.4c-1.1-1.6-1.6-3.4-2.2-5.2c-0.1-0.4-0.2-0.9-0.8-0.7c-0.6,0.1-0.5,0.7-0.3,1c0.9,1.7,0.2,3.3-0.2,5
			C259.4,54.9,258.2,57.2,257.9,59.8z"/>
		<path class="st13" d="M258.2,25.5c-0.1-0.6-0.5-0.7-1-0.7c0-0.6-0.5-0.6-0.9-0.6c0.2-0.7-0.1-1.3-0.5-1.9
			c-0.9-1.6-2.6-2.1-3.7-3.3c-0.1-0.6-0.5-1-1.1-1.1c-0.4-0.9-0.8-1.4-1.9-0.8c-0.7,0.4-1-0.1-1.1-0.8c1-1,2-2,3-3.1
			c1.7-0.2,0.3,1.3,0.9,1.6c1.4,1.1,2.8,0.3,4.2-0.1c0.8-0.2,1.1-0.5,1.7,0.5c0.9,1.4,2.3,2,4,1.8c0.5-0.1,0.9,0,1.4,0
			c0,0.2,0,0.4-0.1,0.5c-1.6,2-1.8,2.8-0.7,4.9c0.5,1,1.2,0.2,1.8,0.2c0.5,0,1.5-0.8,1.1,0.7c-2.1,0.9-4.1,1.7-6.2,2.6
			C258.9,25.6,258.5,25.5,258.2,25.5z"/>
		<path class="st11" d="M250.9,39.1c-1.9,0.4-3.6-0.1-5.2-1c-1.5-0.8-2.3-2.1-2.2-3.8c0-0.4-0.1-0.9,0.5-0.9c0.4,0,0.5,0.4,0.6,0.7
			c1.2,2.4,3.3,3.6,5.5,3c1.7-0.5,3.3-1.4,4.6-2.7c0.9-0.9,1.7-0.9,2.6-0.2c0.9,0.7,1.9,1,3,1.4c0.7,0.2,0.8,0.9,0.1,1
			C257.2,37.3,254.5,40,250.9,39.1z"/>
		<path class="st10" d="M263.5,52.7c-0.4,2.3,0.5,4.3,1.4,6.3c1,2.4,0.8,2.8-1.8,3.3c-1,0.2-2.1,0.2-3.1,0.2c-1,0-1.5-0.4-1.8-1.3
			c0-0.2,0.1-0.5,0.1-0.7c0-0.2,0.1-0.5,0.1-0.7c0.5-0.5,0.6-1.2,0.8-1.9c0.4-1.9,1-3.7,1.8-5.4c0.9-1.4,1.5-0.7,2,0.3
			C263.2,52.8,263.3,52.8,263.5,52.7L263.5,52.7z"/>
		<path class="st14" d="M233.4,53.5c-0.1,2-0.2,4.1-0.4,6.1c-0.1,0.9-0.1,2.1-1.7,1.8c-1.3-0.2-2.4-0.5-2.1-2.3c0.4-2,0.7-4,1.1-6
			c0.2-1,0.3-1.8,1.8-1.6C233.5,51.7,233.3,52.6,233.4,53.5z"/>
		<path class="st14" d="M270.9,60.2c0.3,0.8-0.1,1.3-1.2,1.3c-0.9,0.1-2.1,0.9-2.5-0.8c-0.1-0.3-0.3-0.6-0.5-0.9c-0.7-0.9-1-2-1.1-3
			c-0.2-1.5,1.4-1,2.2-1.5c2.4-1.5,2.5-1.4,2.8,1.6C270.6,57.9,270.7,58.9,270.9,60.2z"/>
		<path class="st6" d="M235.6,35.8c-2.1,4.4-3.1,9.2-4.6,13.8c-0.4,0-0.7,0-1.1,0c0.4-2.7,1.5-5.2,2.1-7.9c0.3-1.2,0.8-2.4,1.1-3.7
			c0.4-1.5,0.1-2-1.5-1.7c-1.8,0.3-3.7,0.4-5.4,1.1c-1.1,0.5-2.3,0.7-3.6,0.6c1.2-1.3,3-1.3,4.6-1.7
			C229.9,35.7,232.7,35.4,235.6,35.8z"/>
		<path class="st12" d="M245.3,39.5c1.7,0.5,3.4,0.8,5.2,0.9c2.9,0.2,5.4-0.8,8-1.8c1.1-0.4,2.1-0.8,3.2-1.1
			c0.8-0.2,1.6-0.2,2.2,0.6c0,0-0.1,0.1-0.1,0.1c-2.2,0-4,1.3-6,1.7c-1.7,0.3-3,1.6-4.7,1.7c-2,0.1-4-0.3-6-0.6
			c-0.9-0.1-1.5-0.6-1.8-1.4L245.3,39.5z"/>
		<path class="st7" d="M233.7,49.8c0-2.1,0.9-4.2,0.7-6.4c0-0.4,0-0.9,0.5-1c0.4-0.1,0.7,0.2,0.7,0.6c-0.2,2.5-0.1,5-1.3,7.3
			C234,50.2,233.9,50,233.7,49.8z"/>
		<path class="st8" d="M261.1,52.5c-0.8,1.7-1.4,3.6-1.8,5.4c-0.2,0.7-0.3,1.4-0.8,1.9c-0.2,0-0.4,0-0.6,0c0.3-2.6,1.5-4.9,2.1-7.4
			C260.4,52.4,260.7,52.5,261.1,52.5z"/>
		<path class="st8" d="M258.4,60.5c0,0.2-0.1,0.5-0.1,0.7C258.3,61,258.3,60.8,258.4,60.5z"/>
		<path class="st6" d="M235.9,35.3c-0.1,0.1-0.2,0.3-0.3,0.4C235.7,35.6,235.8,35.5,235.9,35.3z"/>
		<polygon class="st6" points="244.5,30.2 244.5,30.3 244.4,30.2 		"/>
		<path class="st6" d="M229.5,50.6c0.1-0.1,0.1-0.2,0.2-0.4C229.6,50.4,229.5,50.5,229.5,50.6z"/>
		<path class="st6" d="M229.3,51.4c0-0.1,0.1-0.3,0.1-0.4C229.3,51.1,229.3,51.3,229.3,51.4z"/>
		<path class="st10" d="M406.4,61.4c-6.9-0.2-13.7-1-20.1-3.9c-1.9-0.9-3.8-2.1-4.8-4.1c-1.6-2.9-0.8-6.2,1.8-8.3
			c3-2.4,6.6-3.3,10.3-4.1c11-2.2,22-1.8,32.8,1.1c2.2,0.6,4.3,1.5,6.1,2.9c3.9,3.1,4.4,8-0.5,11.5c-2.9,2.1-6.3,3-9.7,3.6
			c-2.6,0.5-5.3,0.9-8,1C411.7,61.4,409.1,61.5,406.4,61.4z"/>
		<path class="st8" d="M250.9,17.7c0.7,0.1,1,0.5,1.1,1.1c-0.2,0.3-0.3,0.6-0.5,0.9c-0.5-0.4-1-0.8-1.6-1.2
			C250.2,18,250.5,17.8,250.9,17.7z"/>
		<path class="st2" d="M516.3,83.1c-0.1,0.5-0.2,1.1-0.9,1c-0.5-0.1-0.5-0.6-0.6-1c-0.3-1.1-0.4-2.2-0.2-3.3c0.1-0.5,0.3-1,0.9-1.2
			c0.6-0.1,1,0.2,1.2,0.7c-0.2,0.5-0.2,0.9,0.3,1.3c0,0.4,0,0.7,0,1.1C516.6,82.2,516.3,82.6,516.3,83.1z"/>
		<path class="st9" d="M516.3,83.1c0-0.5,0.2-0.9,0.6-1.3c0.5,0,1.1,0,1.6,0c0.4,0.5,0.7,1.1,0.1,1.5
			C517.9,83.9,517,83.7,516.3,83.1z"/>
		<path class="st9" d="M516.9,80.8c-0.5-0.3-0.5-0.8-0.3-1.3c1.8-0.1,1.9,0,1.7,1.3C517.8,80.8,517.4,80.8,516.9,80.8z"/>
		<path class="st6" d="M516.9,80.8c0.5,0,0.9,0,1.4,0c0.1,0.4,0.2,0.7,0.3,1.1c-0.5,0-1.1,0-1.6,0C516.9,81.5,516.9,81.1,516.9,80.8
			z"/>
		<path class="st9" d="M478.8,82.1c-0.4,0-0.7,0-1.1,0c0-0.3,0-0.7,0-1c0.1-0.4,0-0.9,0.6-0.9c0.5,0,0.5,0.6,0.6,0.9
			c0,0.1,0,0.2,0,0.2C478.9,81.7,478.8,81.9,478.8,82.1z"/>
		<path class="st6" d="M478.9,81.4c0-0.1,0-0.2,0-0.2C479,81.2,479,81.3,478.9,81.4z"/>
		<path class="st9" d="M573.6,80.6c1.2,0.2,1,1.1,1,1.9C573,82.8,572.9,82.6,573.6,80.6z"/>
		<path class="st4" d="M440.3,81.8c0.2-0.7,0.7-0.7,1.3-0.7c0.1,0.3,0.2,0.5,0.3,0.8c0.1,0.5,0,0.9-0.5,1.1c-0.4,0.2-0.8,0.3-1.1,0
			C439.8,82.7,440.2,82.2,440.3,81.8z"/>
		<path class="st8" d="M453.3,81.1c-0.1,0.3-0.2,0.5-0.3,0.8c-0.1,0.6,0.1,1.5-0.8,1.4c-0.7-0.1-0.6-0.9-0.6-1.4
			c0-0.9-0.1-1.8-0.5-2.7c-0.3-0.5-0.3-1.1,0.2-1.4c0.9-0.4,1.8-0.3,2.6,0.3c0.6,0.4,0,0.8-0.2,1.2
			C453.4,79.9,453.2,80.4,453.3,81.1C453.3,81.1,453.3,81.1,453.3,81.1z"/>
		<path class="st9" d="M532.6,82.5c-0.5,0-1,0-1.5,0c0-1-0.1-2.2,1.6-1.7C532.6,81.3,532.6,81.9,532.6,82.5z"/>
		<path class="st7" d="M251.6,19.7c0.2-0.3,0.3-0.6,0.5-0.9c1.1,1.2,2.9,1.8,3.7,3.3c0.3,0.6,0.7,1.2,0.5,1.9c-0.2,0-0.4,0-0.7,0
			c-0.6,0.1-0.6-0.4-0.8-0.7c-0.8-1-1.4-2.1-3-1.8c-0.2,0-0.5-0.2-0.3-0.6c0.4-0.1,1.1,0.3,1.1-0.4c0.1-0.6-0.5-0.7-1-0.7l-0.1-0.1
			L251.6,19.7z"/>
		<path class="st4" d="M251.5,28c-0.8,0-1.6-0.2-1.7-1.3c-0.1-0.7,0.5-0.8,0.9-0.7c0.8,0.2,2,0.1,2.1,1.4
			C252.8,28.1,252.2,28,251.5,28z"/>
		<path class="st3" d="M248.5,33.5c-0.1,0.4,0.1,1.1-0.7,1c-1.1-0.1-1.1-1.4-1.8-2.1c-0.2-0.2,0.4-0.7,0.8-0.7
			C247.7,31.9,248.5,32.2,248.5,33.5z"/>
		<path class="st9" d="M247.8,28.8c0,0.5-0.4,0.7-0.8,0.7c-0.5,0.1-0.6-0.2-0.7-0.6c-0.1-0.5,0.2-0.8,0.7-0.8
			C247.4,28.1,247.7,28.3,247.8,28.8z"/>
		<path class="st3" d="M255.6,24.1c0.2,0,0.5,0,0.7,0c0.4,0,0.9,0.1,0.9,0.6c-0.2,0.4,0.3,1.2-0.6,1.2
			C255.4,25.9,255.9,24.7,255.6,24.1z"/>
		<path class="st8" d="M252.2,25c-0.5-0.1-0.9-0.3-1-0.8c-0.1-0.4,0.2-0.6,0.6-0.6c0.4,0,0.8,0.2,0.8,0.7
			C252.7,24.6,252.7,24.9,252.2,25z"/>
		<path class="st8" d="M251.7,19.8c0.5,0.1,1.1,0.1,1,0.7c-0.1,0.7-0.7,0.3-1.1,0.4C251.6,20.6,251.6,20.2,251.7,19.8z"/>
		<path class="st15" d="M245.2,39.6c0.3,0.9,0.9,1.3,1.8,1.4c2,0.3,4,0.7,6,0.6c1.7-0.1,3-1.4,4.7-1.7c2-0.4,3.8-1.7,6-1.7
			c0.2,0.7,0.7,1,1.2,1.4c1.5,1.2,2.1,2.9,2.3,4.7c0.2,1.7,0.5,3.4,0.9,5.1c0.5,1.8-0.4,3.2-2,3.4c-1,0.1-1.7-0.2-2.1-1.1
			c-0.7-1.6-1.3-3.2-2.1-4.8c-0.3-0.7-0.7-1.6-1.5-1.4c-0.8,0.3-1,1.3-0.9,2.1c0.5,2,0,3.8-0.7,5.6c-1,2.6-1.9,5.2-2.9,7.8
			c-0.2,0.7-0.7,0.8-1.4,0.8c-3.4,0-6.8,0.4-10.1-0.2c-2.7-0.4-5.3-0.4-7.9-0.5c-1.3-0.1-1.8-0.6-1.7-2c0.3-4.6,0.5-9.1,1.4-13.7
			c0.3-1.5,0.6-3.2-1.3-4.1c-0.3-0.1-0.3-0.6-0.3-0.9c-0.1-2.4,2.7-5.6,5.1-6c1.1-0.2,1.5,0.2,1.6,1.2c0.2,1.9,1.7,2.8,2.7,4.1
			C244.6,40.2,244.9,39.7,245.2,39.6z"/>
		<path class="st4" d="M261.1,52.5c-0.4,0-0.7,0-1.1-0.1c0.5-1.6,1.1-3.2,0.2-5c-0.2-0.3-0.2-0.9,0.3-1c0.5-0.1,0.6,0.4,0.8,0.7
			c0.7,1.8,1.1,3.6,2.2,5.2c-0.2,0.1-0.3,0.3-0.5,0.4C262.6,51.7,262,51.1,261.1,52.5z"/>
		<path class="st3" d="M263.1,52.8c0.2-0.1,0.3-0.3,0.5-0.4c0,0.1-0.1,0.2-0.1,0.3C263.3,52.8,263.2,52.8,263.1,52.8z"/>
	</g>
</g>
</svg>
